<svg xmlns="http://www.w3.org/2000/svg" width="64" height="64" viewBox="0 0 64 64" role="img" aria-label="Pitwall">
  <rect width="64" height="64" rx="13" fill="#070706"/>
  <path d="M42.6,9.9 L42.7,10.5 L42.9,11.1 L43.0,11.8 L43.2,12.3 L43.3,12.9 L43.4,13.3 L43.5,13.9 L43.6,14.4 L43.8,15.0 L43.8,15.3 L43.9,15.7 L44.1,16.2 L44.2,16.8 L44.4,17.5 L44.4,17.8 L44.5,18.1 L44.5,18.3 L44.6,18.7 L44.8,19.3 L44.9,19.7 L44.9,20.0 L45.0,20.4 L45.1,20.8 L45.2,21.0 L45.3,21.6 L45.4,22.1 L45.5,22.5 L45.6,22.8 L45.6,22.9 L45.8,23.5 L45.9,24.1 L45.9,24.3 L46.0,24.7 L46.1,25.0 L46.2,25.4 L46.3,25.8 L46.3,26.0 L46.5,26.5 L46.6,27.0 L46.6,27.2 L46.7,27.4 L46.7,27.5 L46.7,27.7 L46.7,27.7 L46.7,27.8 L46.7,27.8 L46.7,27.8 L46.7,27.8 L46.7,27.8 L46.7,27.8 L46.7,27.8 L46.7,27.8 L46.7,27.8 L46.7,27.8 L46.7,27.8 L46.7,27.8 L46.7,27.8 L46.7,27.8 L46.7,27.8 L46.7,27.8 L46.7,27.8 L46.7,27.8 L46.7,27.8 L46.7,27.8 L46.7,27.8 L46.7,27.8 L46.7,27.8 L46.7,27.8 L46.7,27.8 L46.7,27.8 L46.7,27.8 L46.7,27.8 L46.7,27.8 L46.7,27.8 L46.8,27.9 L46.8,27.9 L46.8,28.0 L46.8,28.2 L46.9,28.3 L46.9,28.4 L47.0,28.8 L47.1,29.1 L47.1,29.2 L47.1,29.4 L47.3,30.1 L47.3,30.3 L47.4,30.6 L47.5,31.1 L47.6,31.3 L47.6,31.6 L47.7,32.2 L47.8,32.7 L47.9,32.9 L47.9,33.3 L48.0,33.7 L48.0,34.2 L48.1,34.6 L48.1,35.0 L48.2,35.6 L48.3,36.3 L48.4,37.1 L48.5,37.9 L48.5,38.7 L48.6,38.9 L48.8,40.3 L49.2,42.1 L49.5,43.5 L49.8,44.8 L50.1,46.3 L50.3,47.0 L50.5,47.8 L50.7,48.9 L50.8,49.5 L50.9,50.5 L51.0,50.6 L51.0,51.6 L50.9,52.7 L50.8,53.1 L50.7,53.5 L50.5,53.9 L50.2,54.2 L50.2,54.3 L50.1,54.4 L49.7,54.7 L49.4,54.8 L49.0,54.9 L48.7,55.0 L48.4,55.0 L48.1,55.0 L47.7,55.0 L46.9,55.0 L46.6,55.0 L45.8,54.9 L44.5,54.6 L44.1,54.4 L42.9,54.1 L42.4,53.9 L41.2,53.5 L39.6,52.7 L39.1,52.5 L38.3,52.0 L37.8,51.7 L36.9,51.1 L36.1,50.5 L35.5,50.1 L34.1,49.0 L32.7,47.9 L31.9,47.2 L31.0,46.5 L30.5,46.1 L30.0,45.7 L28.6,44.2 L28.5,44.0 L27.9,43.1 L27.8,42.7 L27.8,42.2 L27.9,41.2 L28.0,40.1 L28.0,39.7 L27.9,39.1 L27.8,38.4 L27.4,37.6 L27.0,36.9 L26.7,36.5 L26.3,35.9 L25.7,35.3 L25.4,34.8 L25.1,34.5 L24.8,34.2 L24.4,33.6 L23.7,32.8 L22.9,32.0 L21.9,31.0 L21.3,30.5 L20.2,29.7 L19.4,29.0 L18.7,28.4 L17.6,27.3 L16.9,26.1 L16.5,25.2 L15.8,23.4 L15.5,21.7 L15.4,20.1 L15.4,19.3 L15.4,18.7 L15.4,17.5 L15.5,16.7 L15.5,15.5 L15.6,14.3 L15.6,14.0 L15.6,12.7 L15.5,11.8 L15.3,11.2 L15.0,10.4 L14.6,9.8 L14.2,9.4 L13.8,9.2 L13.5,9.1 L13.0,9.0" fill="none" stroke="#D8813F" stroke-width="3.2" stroke-linecap="round" stroke-linejoin="round"/>
  <circle cx="13.0" cy="9.0" r="4.2" fill="#EEE8DC"/>
</svg>
