<svg xmlns="http://www.w3.org/2000/svg" viewBox="0 0 460 263">
  <rect width="460" height="263" rx="31" fill="#0c1116"/>
  <path d="M371.6,136.7 L373.7,139.2 L377.0,143.0 L380.5,147.1 L381.9,148.8 L386.2,153.7 L389.5,157.6 L392.7,161.5 L395.1,164.3 L397.2,166.8 L400.0,170.1 L403.3,174.0 L408.3,179.7 L410.8,182.8 L415.0,187.7 L417.3,190.4 L420.3,194.0 L422.2,196.1 L427.0,202.1 L427.8,203.1 L429.6,206.1 L431.1,210.5 L431.5,212.7 L431.6,215.1 L431.4,217.8 L431.2,219.0 L430.5,222.1 L429.9,224.2 L428.9,227.2 L426.5,231.1 L425.3,232.2 L424.1,233.0 L422.6,233.9 L420.4,234.6 L419.1,234.8 L415.7,235.0 L413.4,234.6 L412.3,234.3 L409.5,233.0 L407.4,231.3 L405.9,229.7 L404.6,227.8 L401.7,223.3 L400.5,221.3 L398.7,218.0 L397.1,215.1 L395.2,212.0 L394.4,210.7 L392.5,207.9 L391.1,206.0 L389.3,203.9 L386.4,201.1 L381.3,198.2 L380.1,197.8 L375.7,197.0 L372.9,196.8 L371.0,196.6 L369.2,196.4 L364.2,194.8 L362.1,193.4 L360.0,191.7 L358.5,189.9 L357.0,187.3 L356.2,185.0 L355.3,181.7 L354.6,179.5 L353.6,176.0 L353.4,175.2 L351.7,170.7 L349.2,167.3 L347.1,165.4 L344.0,163.5 L336.5,161.6 L332.8,161.4 L329.8,161.2 L325.4,160.5 L321.3,159.0 L319.6,158.0 L317.6,156.6 L316.3,155.5 L314.6,153.7 L313.7,152.6 L312.1,150.0 L310.8,146.0 L310.6,143.9 L310.7,142.5 L311.2,140.6 L312.2,137.7 L313.1,135.5 L314.2,132.8 L315.4,129.8 L316.5,126.9 L317.4,124.0 L317.7,122.0 L317.0,117.0 L316.1,114.9 L314.2,111.9 L313.6,111.3 L310.0,108.3 L308.4,107.4 L303.3,105.0 L301.8,104.3 L299.1,103.2 L296.3,102.2 L292.5,101.3 L289.6,100.7 L285.3,100.2 L280.7,100.1 L279.8,100.1 L274.2,100.6 L272.1,101.0 L268.2,102.2 L264.5,103.7 L253.8,110.2 L251.3,112.6 L248.8,115.4 L245.8,119.5 L243.1,123.0 L241.2,125.6 L239.2,128.2 L237.6,130.3 L234.9,133.5 L233.7,135.0 L230.5,138.6 L229.1,139.9 L226.3,141.2 L224.3,141.6 L220.3,142.3 L217.4,142.9 L215.6,143.2 L213.9,143.4 L210.7,143.9 L207.9,144.3 L204.6,144.5 L203.2,144.4 L200.4,144.2 L198.7,143.8 L196.7,142.8 L195.5,141.8 L194.9,141.0 L193.5,138.4 L193.1,137.4 L192.7,135.5 L192.5,134.4 L192.2,131.8 L191.9,129.1 L191.5,127.2 L191.3,126.2 L190.9,124.4 L189.9,119.9 L189.2,116.5 L188.7,114.1 L188.2,111.7 L187.7,109.8 L186.8,105.3 L185.8,100.9 L185.3,98.6 L184.9,96.2 L184.4,94.1 L183.7,90.4 L183.3,87.7 L182.8,83.1 L182.8,79.9 L183.5,75.9 L183.7,74.9 L185.6,69.7 L186.1,68.7 L187.5,65.7 L187.9,65.0 L188.5,63.7 L189.2,62.0 L189.9,60.2 L190.2,59.2 L190.3,58.7 L190.3,56.6 L190.1,55.5 L189.4,54.3 L188.3,53.3 L187.6,52.9 L186.8,52.6 L186.0,52.5 L185.3,52.6 L184.4,52.7 L183.3,53.2 L182.3,53.9 L181.5,54.7 L180.3,56.4 L179.7,57.5 L178.9,58.9 L178.4,60.1 L177.2,62.4 L176.2,64.0 L175.3,65.7 L173.9,68.0 L172.9,69.7 L171.6,71.6 L169.3,75.0 L167.6,77.6 L165.3,80.8 L164.2,82.2 L161.4,85.1 L159.2,87.0 L155.6,89.7 L151.4,92.0 L148.7,92.9 L145.8,93.5 L144.3,93.8 L138.1,94.5 L134.7,94.6 L129.9,94.5 L125.0,94.0 L120.1,93.0 L115.0,91.6 L111.4,90.5 L109.0,89.6 L103.8,87.6 L99.3,85.6 L97.0,84.4 L92.2,81.4 L88.2,78.4 L86.4,76.8 L84.6,75.1 L82.3,72.6 L79.1,68.5 L77.5,65.9 L75.7,62.7 L74.3,59.6 L72.7,56.0 L71.1,52.3 L69.6,48.7 L67.6,44.1 L66.1,41.1 L65.0,38.9 L60.6,32.2 L56.0,29.2 L54.9,28.8 L50.5,28.0 L47.7,28.0 L44.6,28.2 L40.9,28.8 L37.3,29.9 L33.4,31.9 L31.2,33.9 L30.1,35.4 L29.1,37.5 L28.8,38.7 L28.4,41.7 L28.6,44.1 L29.0,46.0 L34.0,54.8 L35.9,56.8 L37.3,58.1 L38.7,59.3 L41.1,61.3 L43.2,62.9 L46.9,65.6 L49.5,67.5 L51.7,69.1 L54.6,71.0 L56.8,72.5 L61.8,75.6 L64.2,77.1 L69.9,80.4 L74.8,83.0 L79.5,85.5 L82.5,87.0 L85.3,88.4 L88.7,90.0 L92.5,91.7 L98.8,94.2 L101.2,95.1 L104.5,96.3 L110.0,98.2 L112.7,99.1 L119.6,101.4 L125.5,103.4 L131.7,105.5 L133.5,106.1 L137.0,107.3 L140.8,108.5 L144.7,109.8 L150.0,111.6 L154.8,113.3 L157.9,114.3 L163.8,116.3 L165.2,116.7 L168.9,118.0 L173.4,119.5 L179.6,121.6 L183.3,122.8 L187.6,124.3 L193.6,126.3 L198.8,127.7 L203.3,127.7 L207.4,126.6 L210.4,125.6 L214.8,123.8 L217.2,122.7 L221.1,120.8 L225.8,117.9 L229.3,115.5 L233.4,112.3 L236.3,109.8 L238.7,107.6 L241.5,104.9 L243.4,103.2 L246.2,100.6 L249.9,96.9 L253.0,93.8 L254.6,92.2 L257.6,89.1 L260.6,86.2 L261.4,85.5 L263.4,83.8 L265.2,82.7 L266.8,81.9 L268.2,81.5 L269.0,81.3 L270.4,81.1 L271.9,81.1 L273.3,81.6 L274.2,82.2 L274.8,82.7 L276.1,83.8 L277.3,84.7 L278.3,85.1 L279.3,85.3 L280.1,85.4 L281.0,85.4 L283.0,84.9 L284.5,84.2 L285.8,83.2 L286.6,82.5 L287.8,81.4 L288.9,80.3 L290.4,79.1 L291.6,78.2 L293.5,77.2 L295.1,76.6 L301.5,75.8 L303.9,75.9 L307.4,76.4 L308.4,76.6 L312.5,77.8 L314.8,78.6 L316.6,79.3 L319.7,80.8 L321.1,81.6 L325.4,84.5 L328.8,87.5 L330.7,89.3 L333.8,92.6 L337.3,96.6 L339.3,99.0 L341.8,101.9 L342.9,103.2 L345.4,106.2 L347.8,108.9 L349.6,111.0 L351.3,113.0 L356.3,118.9 L359.3,122.4 L361.9,125.3 L364.4,128.3 L368.6,133.2 L371.7,136.8 L373.8,139.3 L375.7,141.5 L377.4,143.5 L382.0,148.8 L384.6,151.9 L388.7,156.7 L392.0,160.6 L396.0,165.4 L400.1,170.2 L403.2,173.8 L406.0,177.1 L408.4,179.9 L411.3,183.3 L416.0,188.9 L419.5,193.0 L421.3,195.1 L423.7,198.0 L427.4,202.6 L429.2,205.3 L430.4,208.1 L431.2,211.0 L431.6,213.9 L431.3,218.4 L430.8,220.7 L430.2,223.1 L429.2,226.5 L427.6,229.7 L425.7,231.9 L424.3,233.0 L423.0,233.7 L420.3,234.6 L418.5,234.9 L417.2,235.0 L414.4,234.8 L412.9,234.5 L410.8,233.7 L408.9,232.6 L407.1,231.0 L405.9,229.6 L404.6,227.9 L403.7,226.5 L401.8,223.4 L401.0,222.0 L400.0,220.3 L398.7,218.0 L397.3,215.6 L396.2,213.6 L394.1,210.3 L390.6,205.4 L388.9,203.5 L386.9,201.6 L383.7,199.3 L381.3,198.2 L377.9,197.3 L373.9,196.8 L370.1,196.5 L365.9,195.6 L363.8,194.6 L362.3,193.6 L360.0,191.6 L357.7,188.6 L356.9,186.9 L356.2,185.0 L355.7,183.4 L355.0,180.9 L354.3,178.3 L353.8,176.7 L353.2,174.7 L353.1,174.1 L351.7,170.7 L349.9,168.1 L347.5,165.7 L346.9,165.2 L345.3,164.2 L343.1,163.1 L341.6,162.5 L338.8,161.8 L337.4,161.7 L333.3,161.4 L329.3,161.1 L325.5,160.6 L323.0,159.8 L321.2,158.9 L319.0,157.6 L317.6,156.5 L315.8,155.0 L314.1,153.1 L312.4,150.5 L311.8,149.4 L310.7,145.5 L310.7,144.8 L310.8,142.4 L311.3,140.1 L311.8,138.6 L313.1,135.5 L314.3,132.5 L315.1,130.5 L315.9,128.6 L317.4,124.2 L317.6,123.1 L317.7,121.0 L317.5,118.6 L316.7,116.1 L315.9,114.5 L314.3,112.2 L312.7,110.4 L310.5,108.6 L308.9,107.6 L306.6,106.5 L304.4,105.5 L302.4,104.5 L296.9,102.4 L291.8,101.1 L291.0,101.0 L288.1,100.5 L285.6,100.2 L281.2,100.1 L278.4,100.2 L274.5,100.5 L271.7,101.1 L265.4,103.3 L263.3,104.3 L260.7,105.6 L256.5,108.2 L253.0,110.9 L248.5,115.8 L246.7,118.2 L245.1,120.4 L243.5,122.5 L239.5,127.8 L236.8,131.3 L234.5,133.9 L233.3,135.5 L230.6,138.5 L229.2,139.8 L226.8,141.1 L224.8,141.6 L215.9,143.1 L214.0,143.4 L209.7,144.1 L207.7,144.3 L204.5,144.5 L202.5,144.4 L201.1,144.3 L197.5,143.3 L196.1,142.4 L194.9,141.0 L193.9,139.2 L192.8,136.3 L192.5,134.0 L192.3,132.5 L191.9,129.3 L191.3,126.4 L190.7,123.5 L190.1,120.9 L189.5,117.9 L188.6,114.0 L188.1,111.6 L187.5,108.6 L186.5,104.0 L185.6,99.9 L184.6,95.2 L184.0,92.0 L183.4,88.3 L183.1,86.7 L182.8,84.0 L182.9,78.9 L183.6,75.4 L184.5,72.6 L185.3,70.6 L187.1,66.7 L187.6,65.5 L188.5,63.8 L189.2,62.2 L190.0,60.0 L190.2,58.9 L190.4,57.9 L190.4,56.8 L190.1,55.6 L189.7,54.8 L188.7,53.6 L187.7,52.9 L185.9,52.5 L184.9,52.6 L184.3,52.8 L183.4,53.2 L182.5,53.7 L181.3,54.9 L180.0,56.9 L179.0,58.9 L174.8,66.6 L174.0,67.9 L172.1,70.9 L171.5,71.8 L170.2,73.8 L167.4,77.9 L165.9,79.9 L162.3,84.3 L160.1,86.3 L158.4,87.7 L156.4,89.2 L151.5,91.9 L145.0,93.7 L143.0,94.0 L138.2,94.4 L134.5,94.6 L131.5,94.6 L128.5,94.4 L124.8,93.9 L120.8,93.2 L113.9,91.3 L107.7,89.1 L103.4,87.4 L101.1,86.4 L98.3,85.1 L94.5,83.0 L91.9,81.2 L89.5,79.4 L85.1,75.6 L81.1,71.2 L78.1,67.0 L75.8,63.0 L73.9,58.8 L72.1,54.6 L70.9,51.8 L70.0,49.5 L68.2,45.3 L66.4,41.5 L63.9,36.8 L62.7,34.8 L60.6,32.2 L57.2,29.8 L54.9,28.8 L53.1,28.3 L51.3,28.1 L49.1,28.0 L46.6,28.0 L43.3,28.4 L42.8,28.4 L40.4,28.9 L37.0,30.0 L34.3,31.3 L31.7,33.3 L30.8,34.4 L29.4,36.9 L28.8,38.6 L28.4,40.8 L28.4,42.7 L28.9,45.8 L29.9,48.5 L30.2,49.3 L32.0,52.4 L34.7,55.6 L37.3,58.2 L39.0,59.7 L41.6,61.7 L44.6,63.9 L47.5,66.1 L50.4,68.1 L52.7,69.7 L55.0,71.3 L61.0,75.1 L62.9,76.3 L68.0,79.3 L72.5,81.8 L76.8,84.1 L79.5,85.5 L82.2,86.9 L84.6,88.1 L87.1,89.3 L90.0,90.6 L94.5,92.5 L98.9,94.2 L100.3,94.7 L103.6,96.0 L107.4,97.3 L112.6,99.0 L116.0,100.2 L123.3,102.7 L125.1,103.3 L128.6,104.5 L133.5,106.1 L140.9,108.6 L145.2,110.0 L148.9,111.3 L153.5,112.8 L159.4,114.8 L163.6,116.2 L167.4,117.5 L171.2,118.8 L174.0,119.7 L177.1,120.7 L180.9,122.0 L185.7,123.6 L189.8,125.0 L192.8,126.0 L198.6,127.7 L203.2,127.7 L204.2,127.5 L209.7,125.8 L225.0,118.4 L227.4,116.8 L231.1,114.2 L233.6,112.2 L236.8,109.4 L240.3,106.1 L244.5,102.1 L248.6,98.1 L252.0,94.7 L254.3,92.4 L256.1,90.6 L258.9,87.8 L260.3,86.5 L261.7,85.2 L262.8,84.3 L263.9,83.5 L265.6,82.5 L267.2,81.7 L268.4,81.4 L270.1,81.1 L271.2,81.1 L273.8,81.9 L275.3,83.1 L276.7,84.3 L278.4,85.1 L279.3,85.3 L280.5,85.4 L281.9,85.3 L282.7,85.0 L284.5,84.2 L285.8,83.2 L287.4,81.7 L288.4,80.7 L290.5,79.0 L291.7,78.1 L293.0,77.4 L294.7,76.7 L296.5,76.2 L298.3,76.0 L301.0,75.8 L303.6,75.9 L306.2,76.2 L308.4,76.6 L311.6,77.5 L312.8,77.9 L315.1,78.7 L318.6,80.2 L321.4,81.8 L322.8,82.7 L327.5,86.3 L329.2,87.8 L331.8,90.5 L334.2,92.9 L336.1,95.1 L339.1,98.7 L341.7,101.8 L346.0,106.8 L350.8,112.4 L354.1,116.3 L356.6,119.1 L358.4,121.2 L361.1,124.4 L362.9,126.5 L365.0,128.9 L369.1,133.8 L372.3,137.5 L375.5,141.3 L377.4,143.5 L378.5,144.8 L382.9,149.9 L385.2,152.6 L388.9,156.9 L390.9,159.4 L392.1,160.7 L395.3,164.5 L399.0,168.9 L402.4,172.9 L406.1,177.3 L410.3,182.1 L414.1,186.5 L417.5,190.6 L419.5,193.1 L422.3,196.3 L424.9,199.5 L426.4,201.4 L430.2,207.4 L431.4,211.9 L431.6,213.9 L431.6,216.4 L430.8,220.6 L430.3,222.7 L429.7,225.1 L428.7,227.7 L427.9,229.3 L426.5,231.1 L425.1,232.4 L421.7,234.2 L419.3,234.8 L417.8,235.0 L416.5,235.0 L413.8,234.7 L412.2,234.3 L409.0,232.6 L407.9,231.8 L405.3,228.8 L403.0,225.4 L401.6,223.2 L400.4,221.1 L399.0,218.6 L397.1,215.2 L395.7,212.8 L392.9,208.5 L391.3,206.2 L390.3,205.1 L388.0,202.6 L385.5,200.5 L381.9,198.4 L378.4,197.3 L375.7,197.0 L371.9,196.7 L368.6,196.3 L366.2,195.7 L364.4,194.9 L361.5,193.0 L360.0,191.6 L357.2,187.6 L355.9,184.1 L355.3,181.9 L354.4,178.9 L353.5,175.8 L352.0,171.3 L351.0,169.5 L348.8,166.9 L346.4,164.9 L344.1,163.5 L342.8,162.9 L340.5,162.2 L338.2,161.8 L335.9,161.6 L334.2,161.5 L332.3,161.4 L328.7,161.1 L327.0,160.8 L324.9,160.4 L323.0,159.8 L318.9,157.6 L317.5,156.5 L315.1,154.3 L314.7,153.9 L312.2,150.1 L311.1,147.5 L310.8,145.9 L310.6,144.0 L311.5,139.5 L312.2,137.8 L312.9,136.1 L314.2,132.8 L314.8,131.3 L316.1,127.9 L316.8,126.0 L317.6,122.8 L317.2,117.7 L315.8,114.4 L314.1,111.9 L311.1,109.0 L309.0,107.7 L305.0,105.7 L302.4,104.5 L299.4,103.3 L297.3,102.5 L294.8,101.8 L290.7,100.9 L288.0,100.5 L285.8,100.3 L276.0,100.4 L272.4,100.9 L267.1,102.6 L264.7,103.6 L261.8,105.1 L259.2,106.5 L256.2,108.3 L252.8,111.1 L250.1,113.9 L248.4,115.9 L246.7,118.2 L244.6,121.1 L241.5,125.1 L239.2,128.2 L237.0,131.0 L233.6,135.0 L231.9,137.1 L228.7,140.1 L226.4,141.2 L223.8,141.7 L220.4,142.3 L216.1,143.1 L214.5,143.3 L212.0,143.7 L207.3,144.4 L203.8,144.5 L202.5,144.4 L200.9,144.2 L199.6,144.0 L198.2,143.6 L196.7,142.8 L195.5,141.7 L194.5,140.5 L193.9,139.3 L193.2,137.7 L192.6,134.8 L192.1,130.9 L192.0,129.7 L191.6,127.6 L191.0,125.0 L190.5,122.5 L190.0,120.1 L189.6,118.3 L188.7,114.4 L188.1,111.5 L187.1,106.8 L185.7,100.4 L185.5,99.4 L184.3,93.6 L183.2,87.5 L183.9,74.5 L184.6,72.4 L185.2,70.7 L186.9,67.1 L187.4,66.0 L188.0,64.7 L188.6,63.5 L189.4,61.6 L189.9,60.3 L190.3,58.5 L190.4,57.0 L190.1,55.6 L189.7,54.7 L188.6,53.5 L187.8,53.0 L187.1,52.7 L185.5,52.6 L184.7,52.7 L183.9,53.0 L182.4,53.8 L181.9,54.3 L180.9,55.5 L180.2,56.6 L179.4,58.1 L178.8,59.1 L177.9,61.0 L177.1,62.5 L175.2,65.8 L174.4,67.1 L173.6,68.5 L172.5,70.3 L170.8,72.9 L169.4,75.0 L167.5,77.8 L165.1,81.0 L164.0,82.4 L161.2,85.3 L158.1,88.0 L153.1,91.2 L150.2,92.4 L147.4,93.2 L141.4,94.1 L136.6,94.6 L131.9,94.6 L131.0,94.6 L126.7,94.2 L121.2,93.3 L115.7,91.8 L111.8,90.6 L108.6,89.4 L104.7,87.9 L102.7,87.1 L99.9,85.9 L96.8,84.3 L92.4,81.5 L90.4,80.1 L88.2,78.4 L86.3,76.8 L83.7,74.1 L80.9,70.9 L79.1,68.4 L78.4,67.4 L74.9,61.0 L73.5,57.8 L72.0,54.5 L70.1,49.9 L69.1,47.5 L67.5,43.9 L66.6,42.1 L65.0,38.8 L64.0,37.0 L61.8,33.6 L58.9,30.8 L55.0,28.8 L51.4,28.1 L48.6,28.0 L47.7,28.0 L45.6,28.1 L43.3,28.4 L40.3,29.0 L37.2,29.9 L34.3,31.3 L31.5,33.6 L30.4,34.9 L28.9,38.4 L28.4,40.6 L28.4,43.4 L29.4,47.2 L30.4,49.6 L31.4,51.4 L32.7,53.3 L34.1,54.9 L35.6,56.5 L38.9,59.5 L41.1,61.3 L41.7,61.7 L44.9,64.1 L46.8,65.6 L50.6,68.2 L52.6,69.7 L56.7,72.4 L59.0,73.9 L62.4,76.0 L64.5,77.2 L65.6,77.9 L71.7,81.4 L74.3,82.8 L79.0,85.3 L83.5,87.5 L87.2,89.3 L91.0,91.0 L97.2,93.6 L102.3,95.5 L105.4,96.6 L108.8,97.8 L112.6,99.0 L118.1,100.9 L121.6,102.1 L125.4,103.4 L130.6,105.2 L135.2,106.7 L144.6,109.8 L148.5,111.1 L154.8,113.2 L158.3,114.4 L164.5,116.5 L166.6,117.2 L172.1,119.1 L177.6,120.9 L181.8,122.3 L186.8,124.0 L192.5,125.9 L208.1,126.4 L213.3,124.5 L214.5,124.0 L218.4,122.2 L221.3,120.7 L225.3,118.2 L227.2,117.0 L231.2,114.1 L234.9,111.0 L237.8,108.4 L240.4,106.0 L244.4,102.3 L247.4,99.4 L250.8,96.0 L253.4,93.4 L256.6,90.2 L258.8,88.0 L261.2,85.7 L263.0,84.1 L265.7,82.4 L268.6,81.3 L271.1,81.0 L273.2,81.6 L275.2,83.0 L275.9,83.7 L276.8,84.3 L277.9,85.0 L279.1,85.3 L281.0,85.4 L282.0,85.3 L283.0,84.9 L284.1,84.4 L284.4,84.3 L285.3,83.6 L286.3,82.7 L287.4,81.7 L288.3,80.8 L289.2,80.0 L290.4,79.1 L291.8,78.1 L293.1,77.4 L295.0,76.6 L299.6,75.9 L302.9,75.9 L306.4,76.2 L310.2,77.1 L315.3,78.8 L317.4,79.7 L320.5,81.3 L323.7,83.3 L325.9,84.9 L328.2,86.9 L328.9,87.5 L332.3,91.0 L334.5,93.3 L338.0,97.5 L339.7,99.4 L342.2,102.4 L345.4,106.1 L347.4,108.4 L357.0,119.6 L359.4,122.5 L361.3,124.7 L364.1,127.9 L367.1,131.4 L368.9,133.6 L371.5,136.6 L373.6,139.0 L376.4,142.3 L378.2,144.5 L380.6,147.2 L385.3,152.7 L388.2,156.1 L391.3,159.7 L395.0,164.1 L398.2,168.0 L402.2,172.6 L404.2,175.0 L407.5,178.9 L409.6,181.3 L413.6,186.0 L417.1,190.2 L420.3,194.0 L423.5,197.7 L426.7,201.8 L428.5,204.1 L430.4,207.9 L431.5,212.7 L431.6,216.0 L431.0,219.8 L430.2,223.2 L429.6,225.3 L428.4,228.3 L426.8,230.8 L424.4,232.9 L422.9,233.7 L421.3,234.3 L419.7,234.8 L417.5,235.0 L416.2,235.0 L414.2,234.8 L413.0,234.5 L411.0,233.8 L409.3,232.8 L407.9,231.8 L406.5,230.4 L405.2,228.8 L403.3,226.0 L401.9,223.5 L399.9,220.1 L397.4,215.7 L395.7,212.8 L394.3,210.4 L392.9,208.4 L392.3,207.5 L389.9,204.5 L388.5,203.0 L385.0,200.1" fill="none" stroke="#3fdfa0" stroke-width="14" stroke-linecap="round" stroke-linejoin="round"/>
  <circle cx="385.0" cy="200.1" r="22" fill="#f2c14e"/>
</svg>