<svg xmlns="http://www.w3.org/2000/svg" viewBox="0 0 360 520">
  <rect width="360" height="520" rx="48" fill="#0c1116"/>
  <path d="M242.1,394.8 L242.5,396.3 L242.8,397.7 L242.9,398.2 L243.4,400.0 L243.7,401.5 L243.9,402.3 L244.0,402.9 L244.1,403.3 L244.3,403.9 L244.3,404.1 L244.3,404.2 L244.3,404.2 L244.3,404.2 L244.3,404.2 L244.3,404.2 L244.3,404.2 L244.3,404.2 L244.3,404.2 L244.3,404.2 L244.3,404.2 L244.3,404.2 L244.3,404.2 L244.3,404.2 L244.3,404.2 L244.3,404.2 L244.3,404.2 L244.3,404.2 L244.3,404.2 L244.3,404.2 L244.3,404.2 L244.3,404.2 L244.3,404.2 L244.3,404.2 L244.3,404.2 L244.3,404.2 L244.3,404.2 L244.3,404.2 L244.3,404.2 L244.3,404.3 L244.3,404.3 L244.4,404.4 L244.4,404.6 L244.5,405.0 L244.6,405.5 L244.7,406.1 L244.8,406.4 L245.1,407.6 L245.4,408.8 L245.4,409.0 L245.6,409.8 L246.1,411.9 L246.3,412.7 L246.5,413.9 L246.9,415.4 L247.1,416.2 L247.3,417.2 L247.7,419.0 L248.0,420.7 L248.1,421.3 L248.4,422.7 L248.5,424.3 L248.7,425.7 L248.9,427.2 L249.0,428.7 L249.2,430.7 L249.5,432.8 L249.8,435.5 L250.1,438.4 L250.4,441.0 L250.4,441.7 L251.2,446.6 L252.6,452.6 L253.6,457.1 L254.6,461.6 L255.7,466.5 L256.3,469.1 L256.9,471.8 L257.7,475.4 L258.0,477.3 L258.5,480.8 L258.5,481.3 L258.7,484.6 L258.4,488.1 L258.0,489.7 L257.6,490.9 L256.8,492.3 L256.0,493.4 L255.9,493.5 L255.6,493.9 L254.4,494.8 L253.2,495.4 L251.8,495.7 L250.9,495.8 L249.8,495.9 L248.8,496.0 L247.5,496.0 L245.0,495.9 L243.7,495.8 L241.1,495.5 L236.7,494.5 L235.2,494.1 L231.5,492.9 L229.6,492.3 L225.7,490.9 L220.1,488.4 L218.4,487.4 L216.0,486.0 L214.1,484.8 L211.0,482.7 L208.5,480.9 L206.6,479.5 L201.7,475.8 L197.0,471.9 L194.2,469.7 L191.2,467.3 L189.5,465.9 L188.0,464.6 L183.2,459.6 L182.7,458.9 L180.9,455.8 L180.6,454.6 L180.4,453.0 L180.8,449.3 L181.1,445.8 L181.1,444.4 L180.8,442.3 L180.4,440.1 L179.2,437.2 L177.7,434.9 L176.7,433.5 L175.2,431.7 L173.5,429.5 L172.2,427.9 L171.5,427.0 L170.4,425.7 L169.0,423.9 L166.6,421.2 L164.0,418.4 L160.4,415.1 L158.4,413.4 L154.8,410.5 L152.1,408.4 L149.7,406.4 L146.1,402.6 L143.6,398.6 L142.3,395.7 L140.1,389.5 L138.9,383.8 L138.6,378.5 L138.6,375.5 L138.6,373.5 L138.8,369.6 L138.9,366.7 L139.1,362.8 L139.4,358.8 L139.4,357.6 L139.3,353.3 L138.9,350.3 L138.4,348.3 L137.4,345.6 L136.0,343.6 L134.5,342.2 L133.4,341.6 L132.4,341.2 L130.5,340.9 L130.3,340.9 L127.7,340.9 L126.2,341.1 L124.1,341.2 L123.1,341.2 L120.3,340.9 L118.7,340.4 L116.8,339.5 L115.9,339.0 L113.1,336.6 L111.7,334.9 L110.3,332.9 L108.9,330.3 L108.0,328.4 L106.8,324.6 L106.2,322.1 L105.7,319.7 L104.8,312.9 L104.4,309.6 L103.8,305.0 L103.6,303.0 L103.3,299.1 L102.9,295.0 L102.5,289.9 L102.2,285.2 L102.0,283.1 L101.8,278.8 L101.5,274.4 L101.4,271.4 L101.3,263.9 L101.3,259.0 L101.5,252.1 L101.9,245.6 L102.0,244.1 L102.4,239.9 L102.8,236.1 L103.3,232.3 L104.2,225.5 L105.4,218.6 L106.0,215.7 L106.6,212.7 L108.2,206.1 L109.0,202.8 L109.6,200.3 L110.2,197.4 L111.0,194.0 L111.5,192.0 L114.0,182.9 L115.2,180.5 L117.1,178.6 L119.4,177.7 L121.5,177.2 L122.3,177.0 L124.5,176.2 L126.1,175.4 L128.3,174.0 L130.4,172.1 L132.4,169.7 L133.7,167.6 L135.4,164.0 L135.5,163.5 L136.7,160.1 L138.1,155.2 L139.0,151.4 L139.2,150.5 L140.8,144.1 L141.5,141.1 L142.2,137.9 L143.6,130.6 L144.2,126.9 L145.2,121.3 L146.0,116.0 L146.8,109.5 L147.3,105.4 L147.8,99.5 L147.9,97.6 L148.1,93.1 L148.2,89.7 L148.3,85.5 L148.3,78.2 L148.2,73.3 L147.8,68.7 L147.6,66.5 L146.0,57.7 L144.3,50.8 L143.7,47.9 L142.6,43.4 L141.7,39.2 L140.7,34.4 L140.6,33.3 L140.3,31.2 L140.3,27.8 L140.6,26.8 L141.6,25.3 L142.6,24.5 L144.0,24.0 L145.3,24.0 L146.1,24.2 L147.1,24.6 L148.0,25.5 L149.0,26.9 L149.4,27.7 L149.6,28.2 L149.9,28.9 L150.1,29.4 L150.5,30.7 L150.8,31.8 L151.0,32.6 L151.3,33.6 L151.4,34.4 L150.5,30.1 L150.8,31.7 L151.2,33.2 L151.6,35.8 L151.9,38.2 L152.1,40.5 L152.3,43.6 L152.4,44.9 L152.9,48.3 L153.5,51.1 L154.3,53.7 L155.9,58.3 L157.0,61.1 L159.4,66.8 L161.3,71.2 L162.5,74.2 L169.2,89.5 L170.7,93.0 L173.7,100.0 L177.0,107.7 L179.0,112.5 L181.1,117.8 L182.8,122.1 L185.2,128.7 L187.5,135.5 L189.4,141.6 L190.9,146.9 L192.6,153.5 L194.3,160.2 L194.7,161.8 L195.9,166.8 L197.0,171.3 L198.4,177.6 L199.4,181.7 L201.0,188.3 L202.1,193.3 L204.0,201.1 L205.0,205.7 L207.0,214.3 L208.3,219.7 L209.5,225.0 L210.7,230.4 L211.9,235.7 L213.5,242.7 L214.9,248.4 L216.1,253.8 L217.0,257.5 L218.8,264.8 L219.8,269.3 L221.2,274.8 L221.9,278.1 L222.6,280.9 L224.1,287.4 L224.7,289.8 L225.8,294.8 L226.4,298.6 L226.6,300.6 L226.4,303.8 L225.3,306.6 L223.8,309.0 L222.9,310.6 L222.5,311.6 L221.5,315.5 L221.4,318.3 L221.5,320.5 L221.9,324.2 L222.8,328.6 L223.3,331.2 L224.3,334.9 L224.8,336.5 L226.5,342.2 L227.2,344.9 L228.0,347.5 L229.2,352.1 L230.0,355.0 L230.6,357.6 L231.3,360.2 L232.3,364.3 L233.2,367.7 L235.3,376.0 L236.2,379.2 L236.9,382.0 L239.0,389.9 L240.4,395.4 L241.5,399.6 L241.9,401.4 L243.9,409.9 L245.1,416.7 L245.3,417.8 L245.8,421.6 L246.2,427.3 L246.2,430.8 L246.1,436.2 L246.0,436.9 L245.6,442.3 L245.0,448.6 L244.4,453.8 L244.0,457.2 L243.8,459.2 L243.6,461.7 L243.4,464.3 L243.4,467.8 L243.8,470.5 L244.3,472.6 L245.5,475.2 L246.8,476.9 L248.1,478.2 L250.2,479.9 L251.9,480.9 L253.2,481.7 L254.6,482.5 L256.1,483.4 L257.1,484.2 L257.6,484.8 L258.2,486.0 L258.4,488.2 L258.2,489.6 L257.4,491.5 L256.4,493.2 L255.5,494.1 L253.7,495.2 L251.4,495.8 L249.1,496.0 L247.7,496.0 L245.3,496.0 L244.9,495.9 L240.6,495.4 L238.2,494.9 L236.0,494.3 L232.9,493.4 L230.5,492.6 L229.5,492.3 L224.5,490.4 L220.7,488.7 L212.8,483.9 L210.8,482.5 L207.2,480.0 L204.7,478.1 L202.7,476.6 L200.5,474.8 L194.8,470.2 L191.2,467.3 L190.5,466.8 L188.7,465.3 L186.5,463.3 L183.2,459.7 L182.4,458.6 L181.1,456.2 L180.5,454.1 L180.6,450.8 L181.0,448.3 L181.1,446.9 L181.1,445.2 L181.0,443.6 L180.8,442.4 L180.4,440.0 L179.7,438.1 L178.5,436.1 L177.3,434.4 L176.7,433.5 L173.8,429.9 L170.8,426.2 L169.7,424.8 L166.7,421.2 L164.9,419.3 L163.3,417.7 L160.9,415.5 L157.6,412.8 L156.9,412.2 L151.7,408.0 L148.5,405.3 L147.0,403.7 L144.9,400.9 L142.9,397.1 L141.8,394.6 L139.9,388.8 L138.9,383.3 L138.7,380.7 L138.6,374.7 L139.4,358.2 L139.4,355.1 L139.0,350.9 L138.1,347.3 L136.9,344.9 L135.2,342.7 L133.7,341.7 L132.4,341.2 L130.6,340.9 L129.1,340.9 L127.1,341.0 L125.8,341.1 L125.3,341.1 L121.7,341.1 L118.2,340.2 L115.2,338.5 L112.1,335.4 L110.4,333.0 L109.3,331.1 L107.8,327.9 L106.8,324.8 L106.1,321.7 L105.8,320.1 L105.3,317.0 L104.9,313.7 L104.5,310.7 L103.7,303.8 L103.4,300.1 L103.0,296.1 L102.7,292.6 L102.6,290.8 L102.3,286.6 L102.0,283.3 L101.7,278.2 L101.5,272.5 L101.4,269.9 L101.3,263.7 L101.3,257.9 L101.5,252.1 L101.8,247.4 L102.4,239.9 L102.9,235.2 L103.7,228.9 L104.5,223.8 L105.4,218.7 L106.1,215.1 L106.8,212.0 L107.8,207.8 L108.7,203.9 L109.6,200.2 L110.7,195.3 L111.5,191.9 L112.0,189.5 L113.2,185.0 L114.9,181.0 L123.6,176.6 L124.9,176.1 L126.3,175.4 L128.3,174.0 L129.2,173.3 L130.5,172.1 L132.1,170.0 L133.4,168.1 L135.1,164.6 L136.4,161.1 L137.4,157.8 L138.1,155.1 L139.0,151.5 L139.9,147.7 L140.9,143.8 L141.6,140.6 L142.3,137.4 L143.1,133.2 L144.2,127.4 L144.7,124.2 L145.2,121.0 L146.1,114.8 L147.0,108.1 L147.4,104.3 L147.6,101.6 L147.9,97.8 L148.1,93.2 L148.2,89.7 L148.3,84.6 L148.3,76.7 L148.2,73.6 L147.9,69.8 L147.2,63.9 L146.1,58.2 L144.9,53.1 L144.1,49.7 L143.5,47.2 L142.4,42.5 L141.8,39.8 L141.2,36.8 L140.7,34.1 L140.5,32.8 L140.2,30.6 L140.2,29.2 L140.3,27.8 L140.6,26.9 L141.2,25.9 L141.8,25.1 L142.6,24.6 L144.0,24.1 L144.6,24.0 L145.3,24.0 L147.2,24.8 L147.7,25.2 L148.9,26.8 L150.0,29.0 L150.3,30.0" fill="none" stroke="#3fdfa0" stroke-width="14" stroke-linecap="round" stroke-linejoin="round"/>
  <circle cx="150.3" cy="30.0" r="22" fill="#f2c14e"/>
</svg>