<svg class="rich-terminal" viewBox="0 0 1360 830.8" xmlns="http://www.w3.org/2000/svg">
    <!-- Generated with Rich https://www.textualize.io -->
    <style>

    @font-face {
        font-family: "Fira Code";
        src: local("FiraCode-Regular"),
                url("https://cdnjs.cloudflare.com/ajax/libs/firacode/6.2.0/woff2/FiraCode-Regular.woff2") format("woff2"),
                url("https://cdnjs.cloudflare.com/ajax/libs/firacode/6.2.0/woff/FiraCode-Regular.woff") format("woff");
        font-style: normal;
        font-weight: 400;
    }
    @font-face {
        font-family: "Fira Code";
        src: local("FiraCode-Bold"),
                url("https://cdnjs.cloudflare.com/ajax/libs/firacode/6.2.0/woff2/FiraCode-Bold.woff2") format("woff2"),
                url("https://cdnjs.cloudflare.com/ajax/libs/firacode/6.2.0/woff/FiraCode-Bold.woff") format("woff");
        font-style: bold;
        font-weight: 700;
    }

    .terminal-3896505094-matrix {
        font-family: Fira Code, monospace;
        font-size: 20px;
        line-height: 24.4px;
        font-variant-east-asian: full-width;
    }

    .terminal-3896505094-title {
        font-size: 18px;
        font-weight: bold;
        font-family: arial;
    }

    .terminal-3896505094-r1 { fill: #c5c8c6 }
.terminal-3896505094-r2 { fill: #e0e0e0 }
.terminal-3896505094-r3 { fill: #a0a3a6 }
.terminal-3896505094-r4 { fill: #ffa62b;font-weight: bold }
.terminal-3896505094-r5 { fill: #495259 }
    </style>

    <defs>
    <clipPath id="terminal-3896505094-clip-terminal">
      <rect x="0" y="0" width="1341.0" height="779.8" />
    </clipPath>
    <clipPath id="terminal-3896505094-line-0">
    <rect x="0" y="1.5" width="1342" height="24.65"/>
            </clipPath>
<clipPath id="terminal-3896505094-line-1">
    <rect x="0" y="25.9" width="1342" height="24.65"/>
            </clipPath>
<clipPath id="terminal-3896505094-line-2">
    <rect x="0" y="50.3" width="1342" height="24.65"/>
            </clipPath>
<clipPath id="terminal-3896505094-line-3">
    <rect x="0" y="74.7" width="1342" height="24.65"/>
            </clipPath>
<clipPath id="terminal-3896505094-line-4">
    <rect x="0" y="99.1" width="1342" height="24.65"/>
            </clipPath>
<clipPath id="terminal-3896505094-line-5">
    <rect x="0" y="123.5" width="1342" height="24.65"/>
            </clipPath>
<clipPath id="terminal-3896505094-line-6">
    <rect x="0" y="147.9" width="1342" height="24.65"/>
            </clipPath>
<clipPath id="terminal-3896505094-line-7">
    <rect x="0" y="172.3" width="1342" height="24.65"/>
            </clipPath>
<clipPath id="terminal-3896505094-line-8">
    <rect x="0" y="196.7" width="1342" height="24.65"/>
            </clipPath>
<clipPath id="terminal-3896505094-line-9">
    <rect x="0" y="221.1" width="1342" height="24.65"/>
            </clipPath>
<clipPath id="terminal-3896505094-line-10">
    <rect x="0" y="245.5" width="1342" height="24.65"/>
            </clipPath>
<clipPath id="terminal-3896505094-line-11">
    <rect x="0" y="269.9" width="1342" height="24.65"/>
            </clipPath>
<clipPath id="terminal-3896505094-line-12">
    <rect x="0" y="294.3" width="1342" height="24.65"/>
            </clipPath>
<clipPath id="terminal-3896505094-line-13">
    <rect x="0" y="318.7" width="1342" height="24.65"/>
            </clipPath>
<clipPath id="terminal-3896505094-line-14">
    <rect x="0" y="343.1" width="1342" height="24.65"/>
            </clipPath>
<clipPath id="terminal-3896505094-line-15">
    <rect x="0" y="367.5" width="1342" height="24.65"/>
            </clipPath>
<clipPath id="terminal-3896505094-line-16">
    <rect x="0" y="391.9" width="1342" height="24.65"/>
            </clipPath>
<clipPath id="terminal-3896505094-line-17">
    <rect x="0" y="416.3" width="1342" height="24.65"/>
            </clipPath>
<clipPath id="terminal-3896505094-line-18">
    <rect x="0" y="440.7" width="1342" height="24.65"/>
            </clipPath>
<clipPath id="terminal-3896505094-line-19">
    <rect x="0" y="465.1" width="1342" height="24.65"/>
            </clipPath>
<clipPath id="terminal-3896505094-line-20">
    <rect x="0" y="489.5" width="1342" height="24.65"/>
            </clipPath>
<clipPath id="terminal-3896505094-line-21">
    <rect x="0" y="513.9" width="1342" height="24.65"/>
            </clipPath>
<clipPath id="terminal-3896505094-line-22">
    <rect x="0" y="538.3" width="1342" height="24.65"/>
            </clipPath>
<clipPath id="terminal-3896505094-line-23">
    <rect x="0" y="562.7" width="1342" height="24.65"/>
            </clipPath>
<clipPath id="terminal-3896505094-line-24">
    <rect x="0" y="587.1" width="1342" height="24.65"/>
            </clipPath>
<clipPath id="terminal-3896505094-line-25">
    <rect x="0" y="611.5" width="1342" height="24.65"/>
            </clipPath>
<clipPath id="terminal-3896505094-line-26">
    <rect x="0" y="635.9" width="1342" height="24.65"/>
            </clipPath>
<clipPath id="terminal-3896505094-line-27">
    <rect x="0" y="660.3" width="1342" height="24.65"/>
            </clipPath>
<clipPath id="terminal-3896505094-line-28">
    <rect x="0" y="684.7" width="1342" height="24.65"/>
            </clipPath>
<clipPath id="terminal-3896505094-line-29">
    <rect x="0" y="709.1" width="1342" height="24.65"/>
            </clipPath>
<clipPath id="terminal-3896505094-line-30">
    <rect x="0" y="733.5" width="1342" height="24.65"/>
            </clipPath>
    </defs>

    <rect fill="#292929" stroke="rgba(255,255,255,0.35)" stroke-width="1" x="1" y="1" width="1358" height="828.8" rx="8"/><text class="terminal-3896505094-title" fill="#c5c8c6" text-anchor="middle" x="679" y="27">Pitwall</text>
            <g transform="translate(26,22)">
            <circle cx="0" cy="0" r="7" fill="#ff5f57"/>
            <circle cx="22" cy="0" r="7" fill="#febc2e"/>
            <circle cx="44" cy="0" r="7" fill="#28c840"/>
            </g>
        
    <g transform="translate(9, 41)" clip-path="url(#terminal-3896505094-clip-terminal)">
    <rect fill="#242f38" x="0" y="1.5" width="12.2" height="24.65" shape-rendering="crispEdges"/><rect fill="#242f38" x="12.2" y="1.5" width="12.2" height="24.65" shape-rendering="crispEdges"/><rect fill="#242f38" x="24.4" y="1.5" width="61" height="24.65" shape-rendering="crispEdges"/><rect fill="#242f38" x="85.4" y="1.5" width="12.2" height="24.65" shape-rendering="crispEdges"/><rect fill="#242f38" x="97.6" y="1.5" width="292.8" height="24.65" shape-rendering="crispEdges"/><rect fill="#242f38" x="390.4" y="1.5" width="85.4" height="24.65" shape-rendering="crispEdges"/><rect fill="#242f38" x="475.8" y="1.5" width="36.6" height="24.65" shape-rendering="crispEdges"/><rect fill="#242f38" x="512.4" y="1.5" width="414.8" height="24.65" shape-rendering="crispEdges"/><rect fill="#242f38" x="927.2" y="1.5" width="292.8" height="24.65" shape-rendering="crispEdges"/><rect fill="#242f38" x="1220" y="1.5" width="12.2" height="24.65" shape-rendering="crispEdges"/><rect fill="#242f38" x="1232.2" y="1.5" width="0" height="24.65" shape-rendering="crispEdges"/><rect fill="#242f38" x="1232.2" y="1.5" width="97.6" height="24.65" shape-rendering="crispEdges"/><rect fill="#242f38" x="1329.8" y="1.5" width="12.2" height="24.65" shape-rendering="crispEdges"/><rect fill="#121212" x="0" y="25.9" width="390.4" height="24.65" shape-rendering="crispEdges"/><rect fill="#121212" x="390.4" y="25.9" width="951.6" height="24.65" shape-rendering="crispEdges"/><rect fill="#121212" x="0" y="50.3" width="524.6" height="24.65" shape-rendering="crispEdges"/><rect fill="#121212" x="524.6" y="50.3" width="817.4" height="24.65" shape-rendering="crispEdges"/><rect fill="#121212" x="0" y="74.7" width="768.6" height="24.65" shape-rendering="crispEdges"/><rect fill="#121212" x="768.6" y="74.7" width="573.4" height="24.65" shape-rendering="crispEdges"/><rect fill="#121212" x="0" y="99.1" width="451.4" height="24.65" shape-rendering="crispEdges"/><rect fill="#121212" x="451.4" y="99.1" width="890.6" height="24.65" shape-rendering="crispEdges"/><rect fill="#121212" x="0" y="123.5" width="183" height="24.65" shape-rendering="crispEdges"/><rect fill="#121212" x="183" y="123.5" width="1159" height="24.65" shape-rendering="crispEdges"/><rect fill="#121212" x="0" y="147.9" width="878.4" height="24.65" shape-rendering="crispEdges"/><rect fill="#121212" x="878.4" y="147.9" width="463.6" height="24.65" shape-rendering="crispEdges"/><rect fill="#121212" x="0" y="172.3" width="475.8" height="24.65" shape-rendering="crispEdges"/><rect fill="#121212" x="475.8" y="172.3" width="866.2" height="24.65" shape-rendering="crispEdges"/><rect fill="#121212" x="0" y="196.7" width="353.8" height="24.65" shape-rendering="crispEdges"/><rect fill="#121212" x="353.8" y="196.7" width="988.2" height="24.65" shape-rendering="crispEdges"/><rect fill="#121212" x="0" y="221.1" width="488" height="24.65" shape-rendering="crispEdges"/><rect fill="#121212" x="488" y="221.1" width="854" height="24.65" shape-rendering="crispEdges"/><rect fill="#121212" x="0" y="245.5" width="1342" height="24.65" shape-rendering="crispEdges"/><rect fill="#121212" x="0" y="269.9" width="1342" height="24.65" shape-rendering="crispEdges"/><rect fill="#121212" x="0" y="294.3" width="1342" height="24.65" shape-rendering="crispEdges"/><rect fill="#121212" x="0" y="318.7" width="1342" height="24.65" shape-rendering="crispEdges"/><rect fill="#121212" x="0" y="343.1" width="1342" height="24.65" shape-rendering="crispEdges"/><rect fill="#121212" x="0" y="367.5" width="1342" height="24.65" shape-rendering="crispEdges"/><rect fill="#121212" x="0" y="391.9" width="1342" height="24.65" shape-rendering="crispEdges"/><rect fill="#121212" x="0" y="416.3" width="1342" height="24.65" shape-rendering="crispEdges"/><rect fill="#121212" x="0" y="440.7" width="1342" height="24.65" shape-rendering="crispEdges"/><rect fill="#121212" x="0" y="465.1" width="1342" height="24.65" shape-rendering="crispEdges"/><rect fill="#121212" x="0" y="489.5" width="1342" height="24.65" shape-rendering="crispEdges"/><rect fill="#121212" x="0" y="513.9" width="1342" height="24.65" shape-rendering="crispEdges"/><rect fill="#121212" x="0" y="538.3" width="1342" height="24.65" shape-rendering="crispEdges"/><rect fill="#121212" x="0" y="562.7" width="1342" height="24.65" shape-rendering="crispEdges"/><rect fill="#121212" x="0" y="587.1" width="1342" height="24.65" shape-rendering="crispEdges"/><rect fill="#121212" x="0" y="611.5" width="1342" height="24.65" shape-rendering="crispEdges"/><rect fill="#121212" x="0" y="635.9" width="1342" height="24.65" shape-rendering="crispEdges"/><rect fill="#121212" x="0" y="660.3" width="1342" height="24.65" shape-rendering="crispEdges"/><rect fill="#121212" x="0" y="684.7" width="1342" height="24.65" shape-rendering="crispEdges"/><rect fill="#121212" x="0" y="709.1" width="1342" height="24.65" shape-rendering="crispEdges"/><rect fill="#121212" x="0" y="733.5" width="1342" height="24.65" shape-rendering="crispEdges"/><rect fill="#242f38" x="0" y="757.9" width="36.6" height="24.65" shape-rendering="crispEdges"/><rect fill="#242f38" x="36.6" y="757.9" width="109.8" height="24.65" shape-rendering="crispEdges"/><rect fill="#242f38" x="146.4" y="757.9" width="36.6" height="24.65" shape-rendering="crispEdges"/><rect fill="#242f38" x="183" y="757.9" width="122" height="24.65" shape-rendering="crispEdges"/><rect fill="#242f38" x="305" y="757.9" width="36.6" height="24.65" shape-rendering="crispEdges"/><rect fill="#242f38" x="341.6" y="757.9" width="97.6" height="24.65" shape-rendering="crispEdges"/><rect fill="#242f38" x="439.2" y="757.9" width="36.6" height="24.65" shape-rendering="crispEdges"/><rect fill="#242f38" x="475.8" y="757.9" width="109.8" height="24.65" shape-rendering="crispEdges"/><rect fill="#242f38" x="585.6" y="757.9" width="36.6" height="24.65" shape-rendering="crispEdges"/><rect fill="#242f38" x="622.2" y="757.9" width="61" height="24.65" shape-rendering="crispEdges"/><rect fill="#242f38" x="683.2" y="757.9" width="36.6" height="24.65" shape-rendering="crispEdges"/><rect fill="#242f38" x="719.8" y="757.9" width="61" height="24.65" shape-rendering="crispEdges"/><rect fill="#242f38" x="780.8" y="757.9" width="36.6" height="24.65" shape-rendering="crispEdges"/><rect fill="#242f38" x="817.4" y="757.9" width="61" height="24.65" shape-rendering="crispEdges"/><rect fill="#242f38" x="878.4" y="757.9" width="317.2" height="24.65" shape-rendering="crispEdges"/><rect fill="#242f38" x="1195.6" y="757.9" width="12.2" height="24.65" shape-rendering="crispEdges"/><rect fill="#242f38" x="1207.8" y="757.9" width="24.4" height="24.65" shape-rendering="crispEdges"/><rect fill="#242f38" x="1232.2" y="757.9" width="97.6" height="24.65" shape-rendering="crispEdges"/><rect fill="#242f38" x="1329.8" y="757.9" width="12.2" height="24.65" shape-rendering="crispEdges"/>
    <g class="terminal-3896505094-matrix">
    <text class="terminal-3896505094-r2" x="12.2" y="20" textLength="12.2" clip-path="url(#terminal-3896505094-line-0)">⭘</text><text class="terminal-3896505094-r2" x="390.4" y="20" textLength="85.4" clip-path="url(#terminal-3896505094-line-0)">Pitwall</text><text class="terminal-3896505094-r3" x="475.8" y="20" textLength="36.6" clip-path="url(#terminal-3896505094-line-0)">&#160;—&#160;</text><text class="terminal-3896505094-r3" x="512.4" y="20" textLength="414.8" clip-path="url(#terminal-3896505094-line-0)">season&#160;2026&#160;·&#160;data&#160;as&#160;of&#160;15:06&#160;UTC</text><text class="terminal-3896505094-r1" x="1342" y="20" textLength="12.2" clip-path="url(#terminal-3896505094-line-0)">
</text><text class="terminal-3896505094-r2" x="0" y="44.4" textLength="390.4" clip-path="url(#terminal-3896505094-line-1)">Game&#160;over&#160;·&#160;NOR&#160;·&#160;final&#160;score&#160;15</text><text class="terminal-3896505094-r1" x="1342" y="44.4" textLength="12.2" clip-path="url(#terminal-3896505094-line-1)">
</text><text class="terminal-3896505094-r2" x="0" y="68.8" textLength="524.6" clip-path="url(#terminal-3896505094-line-2)">Plan&#160;—&#160;NOR&#160;·&#160;MEDIUM&#160;→&#160;MEDIUM&#160;·&#160;pit&#160;16&#160;·&#160;P14</text><text class="terminal-3896505094-r1" x="1342" y="68.8" textLength="12.2" clip-path="url(#terminal-3896505094-line-2)">
</text><text class="terminal-3896505094-r2" x="0" y="93.2" textLength="768.6" clip-path="url(#terminal-3896505094-line-3)">Pit&#160;window&#160;—&#160;planned&#160;stop&#160;at&#160;lap&#160;16:&#160;[1]&#160;pit&#160;now&#160;·&#160;[2]&#160;stay&#160;out</text><text class="terminal-3896505094-r1" x="1342" y="93.2" textLength="12.2" clip-path="url(#terminal-3896505094-line-3)">
</text><text class="terminal-3896505094-r2" x="0" y="117.6" textLength="451.4" clip-path="url(#terminal-3896505094-line-4)">NOR&#160;pitted&#160;—&#160;lap&#160;15&#160;(planned&#160;lap&#160;16).</text><text class="terminal-3896505094-r1" x="1342" y="117.6" textLength="12.2" clip-path="url(#terminal-3896505094-line-4)">
</text><text class="terminal-3896505094-r2" x="0" y="142" textLength="183" clip-path="url(#terminal-3896505094-line-5)">Final&#160;score:&#160;15</text><text class="terminal-3896505094-r1" x="1342" y="142" textLength="12.2" clip-path="url(#terminal-3896505094-line-5)">
</text><text class="terminal-3896505094-r2" x="0" y="166.4" textLength="878.4" clip-path="url(#terminal-3896505094-line-6)">Tyres:&#160;+5&#160;(planned&#160;MEDIUM,&#160;MEDIUM&#160;·&#160;actual&#160;INTERMEDIATE,&#160;MEDIUM,&#160;MEDIUM)</text><text class="terminal-3896505094-r1" x="1342" y="166.4" textLength="12.2" clip-path="url(#terminal-3896505094-line-6)">
</text><text class="terminal-3896505094-r2" x="0" y="190.8" textLength="475.8" clip-path="url(#terminal-3896505094-line-7)">Pit&#160;laps:&#160;0&#160;(planned&#160;16&#160;·&#160;actual&#160;1,&#160;14)</text><text class="terminal-3896505094-r1" x="1342" y="190.8" textLength="12.2" clip-path="url(#terminal-3896505094-line-7)">
</text><text class="terminal-3896505094-r2" x="0" y="215.2" textLength="353.8" clip-path="url(#terminal-3896505094-line-8)">Decisions:&#160;0&#160;(0&#160;of&#160;1&#160;matched)</text><text class="terminal-3896505094-r1" x="1342" y="215.2" textLength="12.2" clip-path="url(#terminal-3896505094-line-8)">
</text><text class="terminal-3896505094-r2" x="0" y="239.6" textLength="488" clip-path="url(#terminal-3896505094-line-9)">Finish:&#160;+10&#160;(predicted&#160;P14&#160;·&#160;actual&#160;P14)</text><text class="terminal-3896505094-r1" x="1342" y="239.6" textLength="12.2" clip-path="url(#terminal-3896505094-line-9)">
</text><text class="terminal-3896505094-r1" x="1342" y="264" textLength="12.2" clip-path="url(#terminal-3896505094-line-10)">
</text><text class="terminal-3896505094-r1" x="1342" y="288.4" textLength="12.2" clip-path="url(#terminal-3896505094-line-11)">
</text><text class="terminal-3896505094-r1" x="1342" y="312.8" textLength="12.2" clip-path="url(#terminal-3896505094-line-12)">
</text><text class="terminal-3896505094-r1" x="1342" y="337.2" textLength="12.2" clip-path="url(#terminal-3896505094-line-13)">
</text><text class="terminal-3896505094-r1" x="1342" y="361.6" textLength="12.2" clip-path="url(#terminal-3896505094-line-14)">
</text><text class="terminal-3896505094-r1" x="1342" y="386" textLength="12.2" clip-path="url(#terminal-3896505094-line-15)">
</text><text class="terminal-3896505094-r1" x="1342" y="410.4" textLength="12.2" clip-path="url(#terminal-3896505094-line-16)">
</text><text class="terminal-3896505094-r1" x="1342" y="434.8" textLength="12.2" clip-path="url(#terminal-3896505094-line-17)">
</text><text class="terminal-3896505094-r1" x="1342" y="459.2" textLength="12.2" clip-path="url(#terminal-3896505094-line-18)">
</text><text class="terminal-3896505094-r1" x="1342" y="483.6" textLength="12.2" clip-path="url(#terminal-3896505094-line-19)">
</text><text class="terminal-3896505094-r1" x="1342" y="508" textLength="12.2" clip-path="url(#terminal-3896505094-line-20)">
</text><text class="terminal-3896505094-r1" x="1342" y="532.4" textLength="12.2" clip-path="url(#terminal-3896505094-line-21)">
</text><text class="terminal-3896505094-r1" x="1342" y="556.8" textLength="12.2" clip-path="url(#terminal-3896505094-line-22)">
</text><text class="terminal-3896505094-r1" x="1342" y="581.2" textLength="12.2" clip-path="url(#terminal-3896505094-line-23)">
</text><text class="terminal-3896505094-r1" x="1342" y="605.6" textLength="12.2" clip-path="url(#terminal-3896505094-line-24)">
</text><text class="terminal-3896505094-r1" x="1342" y="630" textLength="12.2" clip-path="url(#terminal-3896505094-line-25)">
</text><text class="terminal-3896505094-r1" x="1342" y="654.4" textLength="12.2" clip-path="url(#terminal-3896505094-line-26)">
</text><text class="terminal-3896505094-r1" x="1342" y="678.8" textLength="12.2" clip-path="url(#terminal-3896505094-line-27)">
</text><text class="terminal-3896505094-r1" x="1342" y="703.2" textLength="12.2" clip-path="url(#terminal-3896505094-line-28)">
</text><text class="terminal-3896505094-r1" x="1342" y="727.6" textLength="12.2" clip-path="url(#terminal-3896505094-line-29)">
</text><text class="terminal-3896505094-r1" x="1342" y="752" textLength="12.2" clip-path="url(#terminal-3896505094-line-30)">
</text><text class="terminal-3896505094-r4" x="0" y="776.4" textLength="36.6" clip-path="url(#terminal-3896505094-line-31)">&#160;s&#160;</text><text class="terminal-3896505094-r2" x="36.6" y="776.4" textLength="109.8" clip-path="url(#terminal-3896505094-line-31)">Schedule&#160;</text><text class="terminal-3896505094-r4" x="146.4" y="776.4" textLength="36.6" clip-path="url(#terminal-3896505094-line-31)">&#160;n&#160;</text><text class="terminal-3896505094-r2" x="183" y="776.4" textLength="122" clip-path="url(#terminal-3896505094-line-31)">Standings&#160;</text><text class="terminal-3896505094-r4" x="305" y="776.4" textLength="36.6" clip-path="url(#terminal-3896505094-line-31)">&#160;r&#160;</text><text class="terminal-3896505094-r2" x="341.6" y="776.4" textLength="97.6" clip-path="url(#terminal-3896505094-line-31)">Results&#160;</text><text class="terminal-3896505094-r4" x="439.2" y="776.4" textLength="36.6" clip-path="url(#terminal-3896505094-line-31)">&#160;p&#160;</text><text class="terminal-3896505094-r2" x="475.8" y="776.4" textLength="109.8" clip-path="url(#terminal-3896505094-line-31)">Profiles&#160;</text><text class="terminal-3896505094-r4" x="585.6" y="776.4" textLength="36.6" clip-path="url(#terminal-3896505094-line-31)">&#160;l&#160;</text><text class="terminal-3896505094-r2" x="622.2" y="776.4" textLength="61" clip-path="url(#terminal-3896505094-line-31)">Live&#160;</text><text class="terminal-3896505094-r4" x="683.2" y="776.4" textLength="36.6" clip-path="url(#terminal-3896505094-line-31)">&#160;g&#160;</text><text class="terminal-3896505094-r2" x="719.8" y="776.4" textLength="61" clip-path="url(#terminal-3896505094-line-31)">Game&#160;</text><text class="terminal-3896505094-r4" x="780.8" y="776.4" textLength="36.6" clip-path="url(#terminal-3896505094-line-31)">&#160;q&#160;</text><text class="terminal-3896505094-r2" x="817.4" y="776.4" textLength="61" clip-path="url(#terminal-3896505094-line-31)">Quit&#160;</text><text class="terminal-3896505094-r5" x="1195.6" y="776.4" textLength="12.2" clip-path="url(#terminal-3896505094-line-31)">▏</text><text class="terminal-3896505094-r4" x="1207.8" y="776.4" textLength="24.4" clip-path="url(#terminal-3896505094-line-31)">^p</text><text class="terminal-3896505094-r2" x="1232.2" y="776.4" textLength="97.6" clip-path="url(#terminal-3896505094-line-31)">&#160;palette</text>
    </g>
    </g>
</svg>
