<svg class="rich-terminal" viewBox="0 0 1360 830.8" xmlns="http://www.w3.org/2000/svg">
    <!-- Generated with Rich https://www.textualize.io -->
    <style>

    @font-face {
        font-family: "Fira Code";
        src: local("FiraCode-Regular"),
                url("https://cdnjs.cloudflare.com/ajax/libs/firacode/6.2.0/woff2/FiraCode-Regular.woff2") format("woff2"),
                url("https://cdnjs.cloudflare.com/ajax/libs/firacode/6.2.0/woff/FiraCode-Regular.woff") format("woff");
        font-style: normal;
        font-weight: 400;
    }
    @font-face {
        font-family: "Fira Code";
        src: local("FiraCode-Bold"),
                url("https://cdnjs.cloudflare.com/ajax/libs/firacode/6.2.0/woff2/FiraCode-Bold.woff2") format("woff2"),
                url("https://cdnjs.cloudflare.com/ajax/libs/firacode/6.2.0/woff/FiraCode-Bold.woff") format("woff");
        font-style: bold;
        font-weight: 700;
    }

    .terminal-644436359-matrix {
        font-family: Fira Code, monospace;
        font-size: 20px;
        line-height: 24.4px;
        font-variant-east-asian: full-width;
    }

    .terminal-644436359-title {
        font-size: 18px;
        font-weight: bold;
        font-family: arial;
    }

    .terminal-644436359-r1 { fill: #c5c8c6 }
.terminal-644436359-r2 { fill: #e0e0e0 }
.terminal-644436359-r3 { fill: #a0a3a6 }
.terminal-644436359-r4 { fill: #e0e0e0;font-weight: bold }
.terminal-644436359-r5 { fill: #229971 }
.terminal-644436359-r6 { fill: #ddedf9;font-weight: bold }
.terminal-644436359-r7 { fill: #6c98ff }
.terminal-644436359-r8 { fill: #00a1e8 }
.terminal-644436359-r9 { fill: #9c9fa2 }
.terminal-644436359-r10 { fill: #1868db }
.terminal-644436359-r11 { fill: #ffa62b;font-weight: bold }
.terminal-644436359-r12 { fill: #495259 }
    </style>

    <defs>
    <clipPath id="terminal-644436359-clip-terminal">
      <rect x="0" y="0" width="1341.0" height="779.8" />
    </clipPath>
    <clipPath id="terminal-644436359-line-0">
    <rect x="0" y="1.5" width="1342" height="24.65"/>
            </clipPath>
<clipPath id="terminal-644436359-line-1">
    <rect x="0" y="25.9" width="1342" height="24.65"/>
            </clipPath>
<clipPath id="terminal-644436359-line-2">
    <rect x="0" y="50.3" width="1342" height="24.65"/>
            </clipPath>
<clipPath id="terminal-644436359-line-3">
    <rect x="0" y="74.7" width="1342" height="24.65"/>
            </clipPath>
<clipPath id="terminal-644436359-line-4">
    <rect x="0" y="99.1" width="1342" height="24.65"/>
            </clipPath>
<clipPath id="terminal-644436359-line-5">
    <rect x="0" y="123.5" width="1342" height="24.65"/>
            </clipPath>
<clipPath id="terminal-644436359-line-6">
    <rect x="0" y="147.9" width="1342" height="24.65"/>
            </clipPath>
<clipPath id="terminal-644436359-line-7">
    <rect x="0" y="172.3" width="1342" height="24.65"/>
            </clipPath>
<clipPath id="terminal-644436359-line-8">
    <rect x="0" y="196.7" width="1342" height="24.65"/>
            </clipPath>
<clipPath id="terminal-644436359-line-9">
    <rect x="0" y="221.1" width="1342" height="24.65"/>
            </clipPath>
<clipPath id="terminal-644436359-line-10">
    <rect x="0" y="245.5" width="1342" height="24.65"/>
            </clipPath>
<clipPath id="terminal-644436359-line-11">
    <rect x="0" y="269.9" width="1342" height="24.65"/>
            </clipPath>
<clipPath id="terminal-644436359-line-12">
    <rect x="0" y="294.3" width="1342" height="24.65"/>
            </clipPath>
<clipPath id="terminal-644436359-line-13">
    <rect x="0" y="318.7" width="1342" height="24.65"/>
            </clipPath>
<clipPath id="terminal-644436359-line-14">
    <rect x="0" y="343.1" width="1342" height="24.65"/>
            </clipPath>
<clipPath id="terminal-644436359-line-15">
    <rect x="0" y="367.5" width="1342" height="24.65"/>
            </clipPath>
<clipPath id="terminal-644436359-line-16">
    <rect x="0" y="391.9" width="1342" height="24.65"/>
            </clipPath>
<clipPath id="terminal-644436359-line-17">
    <rect x="0" y="416.3" width="1342" height="24.65"/>
            </clipPath>
<clipPath id="terminal-644436359-line-18">
    <rect x="0" y="440.7" width="1342" height="24.65"/>
            </clipPath>
<clipPath id="terminal-644436359-line-19">
    <rect x="0" y="465.1" width="1342" height="24.65"/>
            </clipPath>
<clipPath id="terminal-644436359-line-20">
    <rect x="0" y="489.5" width="1342" height="24.65"/>
            </clipPath>
<clipPath id="terminal-644436359-line-21">
    <rect x="0" y="513.9" width="1342" height="24.65"/>
            </clipPath>
<clipPath id="terminal-644436359-line-22">
    <rect x="0" y="538.3" width="1342" height="24.65"/>
            </clipPath>
<clipPath id="terminal-644436359-line-23">
    <rect x="0" y="562.7" width="1342" height="24.65"/>
            </clipPath>
<clipPath id="terminal-644436359-line-24">
    <rect x="0" y="587.1" width="1342" height="24.65"/>
            </clipPath>
<clipPath id="terminal-644436359-line-25">
    <rect x="0" y="611.5" width="1342" height="24.65"/>
            </clipPath>
<clipPath id="terminal-644436359-line-26">
    <rect x="0" y="635.9" width="1342" height="24.65"/>
            </clipPath>
<clipPath id="terminal-644436359-line-27">
    <rect x="0" y="660.3" width="1342" height="24.65"/>
            </clipPath>
<clipPath id="terminal-644436359-line-28">
    <rect x="0" y="684.7" width="1342" height="24.65"/>
            </clipPath>
<clipPath id="terminal-644436359-line-29">
    <rect x="0" y="709.1" width="1342" height="24.65"/>
            </clipPath>
<clipPath id="terminal-644436359-line-30">
    <rect x="0" y="733.5" width="1342" height="24.65"/>
            </clipPath>
    </defs>

    <rect fill="#292929" stroke="rgba(255,255,255,0.35)" stroke-width="1" x="1" y="1" width="1358" height="828.8" rx="8"/><text class="terminal-644436359-title" fill="#c5c8c6" text-anchor="middle" x="679" y="27">Pitwall</text>
            <g transform="translate(26,22)">
            <circle cx="0" cy="0" r="7" fill="#ff5f57"/>
            <circle cx="22" cy="0" r="7" fill="#febc2e"/>
            <circle cx="44" cy="0" r="7" fill="#28c840"/>
            </g>
        
    <g transform="translate(9, 41)" clip-path="url(#terminal-644436359-clip-terminal)">
    <rect fill="#242f38" x="0" y="1.5" width="12.2" height="24.65" shape-rendering="crispEdges"/><rect fill="#242f38" x="12.2" y="1.5" width="12.2" height="24.65" shape-rendering="crispEdges"/><rect fill="#242f38" x="24.4" y="1.5" width="61" height="24.65" shape-rendering="crispEdges"/><rect fill="#242f38" x="85.4" y="1.5" width="12.2" height="24.65" shape-rendering="crispEdges"/><rect fill="#242f38" x="97.6" y="1.5" width="292.8" height="24.65" shape-rendering="crispEdges"/><rect fill="#242f38" x="390.4" y="1.5" width="85.4" height="24.65" shape-rendering="crispEdges"/><rect fill="#242f38" x="475.8" y="1.5" width="36.6" height="24.65" shape-rendering="crispEdges"/><rect fill="#242f38" x="512.4" y="1.5" width="414.8" height="24.65" shape-rendering="crispEdges"/><rect fill="#242f38" x="927.2" y="1.5" width="292.8" height="24.65" shape-rendering="crispEdges"/><rect fill="#242f38" x="1220" y="1.5" width="12.2" height="24.65" shape-rendering="crispEdges"/><rect fill="#242f38" x="1232.2" y="1.5" width="0" height="24.65" shape-rendering="crispEdges"/><rect fill="#242f38" x="1232.2" y="1.5" width="97.6" height="24.65" shape-rendering="crispEdges"/><rect fill="#242f38" x="1329.8" y="1.5" width="12.2" height="24.65" shape-rendering="crispEdges"/><rect fill="#121212" x="0" y="25.9" width="622.2" height="24.65" shape-rendering="crispEdges"/><rect fill="#121212" x="622.2" y="25.9" width="719.8" height="24.65" shape-rendering="crispEdges"/><rect fill="#2d3740" x="0" y="50.3" width="61" height="24.65" shape-rendering="crispEdges"/><rect fill="#2d3740" x="61" y="50.3" width="61" height="24.65" shape-rendering="crispEdges"/><rect fill="#2d3740" x="122" y="50.3" width="109.8" height="24.65" shape-rendering="crispEdges"/><rect fill="#2d3740" x="231.8" y="50.3" width="109.8" height="24.65" shape-rendering="crispEdges"/><rect fill="#2d3740" x="341.6" y="50.3" width="122" height="24.65" shape-rendering="crispEdges"/><rect fill="#2d3740" x="463.6" y="50.3" width="73.2" height="24.65" shape-rendering="crispEdges"/><rect fill="#2b3339" x="536.8" y="50.3" width="48.8" height="24.65" shape-rendering="crispEdges"/><rect fill="#121212" x="585.6" y="50.3" width="158.6" height="24.65" shape-rendering="crispEdges"/><rect fill="#121212" x="744.2" y="50.3" width="12.2" height="24.65" shape-rendering="crispEdges"/><rect fill="#121212" x="756.4" y="50.3" width="219.6" height="24.65" shape-rendering="crispEdges"/><rect fill="#121212" x="976" y="50.3" width="366" height="24.65" shape-rendering="crispEdges"/><rect fill="#0178d4" x="0" y="74.7" width="61" height="24.65" shape-rendering="crispEdges"/><rect fill="#272727" x="61" y="74.7" width="12.2" height="24.65" shape-rendering="crispEdges"/><rect fill="#272727" x="73.2" y="74.7" width="36.6" height="24.65" shape-rendering="crispEdges"/><rect fill="#272727" x="109.8" y="74.7" width="12.2" height="24.65" shape-rendering="crispEdges"/><rect fill="#272727" x="122" y="74.7" width="109.8" height="24.65" shape-rendering="crispEdges"/><rect fill="#272727" x="231.8" y="74.7" width="109.8" height="24.65" shape-rendering="crispEdges"/><rect fill="#272727" x="341.6" y="74.7" width="122" height="24.65" shape-rendering="crispEdges"/><rect fill="#272727" x="463.6" y="74.7" width="73.2" height="24.65" shape-rendering="crispEdges"/><rect fill="#272727" x="536.8" y="74.7" width="48.8" height="24.65" shape-rendering="crispEdges"/><rect fill="#121212" x="585.6" y="74.7" width="390.4" height="24.65" shape-rendering="crispEdges"/><rect fill="#121212" x="976" y="74.7" width="366" height="24.65" shape-rendering="crispEdges"/><rect fill="#272727" x="0" y="99.1" width="61" height="24.65" shape-rendering="crispEdges"/><rect fill="#272727" x="61" y="99.1" width="12.2" height="24.65" shape-rendering="crispEdges"/><rect fill="#272727" x="73.2" y="99.1" width="36.6" height="24.65" shape-rendering="crispEdges"/><rect fill="#272727" x="109.8" y="99.1" width="12.2" height="24.65" shape-rendering="crispEdges"/><rect fill="#272727" x="122" y="99.1" width="109.8" height="24.65" shape-rendering="crispEdges"/><rect fill="#272727" x="231.8" y="99.1" width="109.8" height="24.65" shape-rendering="crispEdges"/><rect fill="#272727" x="341.6" y="99.1" width="122" height="24.65" shape-rendering="crispEdges"/><rect fill="#272727" x="463.6" y="99.1" width="73.2" height="24.65" shape-rendering="crispEdges"/><rect fill="#272727" x="536.8" y="99.1" width="48.8" height="24.65" shape-rendering="crispEdges"/><rect fill="#121212" x="585.6" y="99.1" width="390.4" height="24.65" shape-rendering="crispEdges"/><rect fill="#121212" x="976" y="99.1" width="366" height="24.65" shape-rendering="crispEdges"/><rect fill="#272727" x="0" y="123.5" width="61" height="24.65" shape-rendering="crispEdges"/><rect fill="#272727" x="61" y="123.5" width="12.2" height="24.65" shape-rendering="crispEdges"/><rect fill="#272727" x="73.2" y="123.5" width="36.6" height="24.65" shape-rendering="crispEdges"/><rect fill="#272727" x="109.8" y="123.5" width="12.2" height="24.65" shape-rendering="crispEdges"/><rect fill="#272727" x="122" y="123.5" width="109.8" height="24.65" shape-rendering="crispEdges"/><rect fill="#272727" x="231.8" y="123.5" width="109.8" height="24.65" shape-rendering="crispEdges"/><rect fill="#272727" x="341.6" y="123.5" width="122" height="24.65" shape-rendering="crispEdges"/><rect fill="#272727" x="463.6" y="123.5" width="73.2" height="24.65" shape-rendering="crispEdges"/><rect fill="#272727" x="536.8" y="123.5" width="48.8" height="24.65" shape-rendering="crispEdges"/><rect fill="#121212" x="585.6" y="123.5" width="390.4" height="24.65" shape-rendering="crispEdges"/><rect fill="#121212" x="976" y="123.5" width="366" height="24.65" shape-rendering="crispEdges"/><rect fill="#272727" x="0" y="147.9" width="61" height="24.65" shape-rendering="crispEdges"/><rect fill="#272727" x="61" y="147.9" width="12.2" height="24.65" shape-rendering="crispEdges"/><rect fill="#272727" x="73.2" y="147.9" width="36.6" height="24.65" shape-rendering="crispEdges"/><rect fill="#272727" x="109.8" y="147.9" width="12.2" height="24.65" shape-rendering="crispEdges"/><rect fill="#272727" x="122" y="147.9" width="109.8" height="24.65" shape-rendering="crispEdges"/><rect fill="#272727" x="231.8" y="147.9" width="109.8" height="24.65" shape-rendering="crispEdges"/><rect fill="#272727" x="341.6" y="147.9" width="122" height="24.65" shape-rendering="crispEdges"/><rect fill="#272727" x="463.6" y="147.9" width="73.2" height="24.65" shape-rendering="crispEdges"/><rect fill="#272727" x="536.8" y="147.9" width="48.8" height="24.65" shape-rendering="crispEdges"/><rect fill="#121212" x="585.6" y="147.9" width="195.2" height="24.65" shape-rendering="crispEdges"/><rect fill="#121212" x="780.8" y="147.9" width="12.2" height="24.65" shape-rendering="crispEdges"/><rect fill="#121212" x="793" y="147.9" width="183" height="24.65" shape-rendering="crispEdges"/><rect fill="#121212" x="976" y="147.9" width="366" height="24.65" shape-rendering="crispEdges"/><rect fill="#272727" x="0" y="172.3" width="61" height="24.65" shape-rendering="crispEdges"/><rect fill="#272727" x="61" y="172.3" width="12.2" height="24.65" shape-rendering="crispEdges"/><rect fill="#272727" x="73.2" y="172.3" width="36.6" height="24.65" shape-rendering="crispEdges"/><rect fill="#272727" x="109.8" y="172.3" width="12.2" height="24.65" shape-rendering="crispEdges"/><rect fill="#272727" x="122" y="172.3" width="109.8" height="24.65" shape-rendering="crispEdges"/><rect fill="#272727" x="231.8" y="172.3" width="109.8" height="24.65" shape-rendering="crispEdges"/><rect fill="#272727" x="341.6" y="172.3" width="122" height="24.65" shape-rendering="crispEdges"/><rect fill="#272727" x="463.6" y="172.3" width="73.2" height="24.65" shape-rendering="crispEdges"/><rect fill="#272727" x="536.8" y="172.3" width="48.8" height="24.65" shape-rendering="crispEdges"/><rect fill="#121212" x="585.6" y="172.3" width="390.4" height="24.65" shape-rendering="crispEdges"/><rect fill="#121212" x="976" y="172.3" width="366" height="24.65" shape-rendering="crispEdges"/><rect fill="#272727" x="0" y="196.7" width="585.6" height="24.65" shape-rendering="crispEdges"/><rect fill="#121212" x="585.6" y="196.7" width="390.4" height="24.65" shape-rendering="crispEdges"/><rect fill="#121212" x="976" y="196.7" width="366" height="24.65" shape-rendering="crispEdges"/><rect fill="#272727" x="0" y="221.1" width="585.6" height="24.65" shape-rendering="crispEdges"/><rect fill="#121212" x="585.6" y="221.1" width="390.4" height="24.65" shape-rendering="crispEdges"/><rect fill="#121212" x="976" y="221.1" width="366" height="24.65" shape-rendering="crispEdges"/><rect fill="#272727" x="0" y="245.5" width="585.6" height="24.65" shape-rendering="crispEdges"/><rect fill="#121212" x="585.6" y="245.5" width="390.4" height="24.65" shape-rendering="crispEdges"/><rect fill="#121212" x="976" y="245.5" width="366" height="24.65" shape-rendering="crispEdges"/><rect fill="#272727" x="0" y="269.9" width="585.6" height="24.65" shape-rendering="crispEdges"/><rect fill="#121212" x="585.6" y="269.9" width="390.4" height="24.65" shape-rendering="crispEdges"/><rect fill="#121212" x="976" y="269.9" width="366" height="24.65" shape-rendering="crispEdges"/><rect fill="#272727" x="0" y="294.3" width="585.6" height="24.65" shape-rendering="crispEdges"/><rect fill="#121212" x="585.6" y="294.3" width="390.4" height="24.65" shape-rendering="crispEdges"/><rect fill="#121212" x="976" y="294.3" width="366" height="24.65" shape-rendering="crispEdges"/><rect fill="#272727" x="0" y="318.7" width="585.6" height="24.65" shape-rendering="crispEdges"/><rect fill="#121212" x="585.6" y="318.7" width="390.4" height="24.65" shape-rendering="crispEdges"/><rect fill="#121212" x="976" y="318.7" width="366" height="24.65" shape-rendering="crispEdges"/><rect fill="#272727" x="0" y="343.1" width="585.6" height="24.65" shape-rendering="crispEdges"/><rect fill="#121212" x="585.6" y="343.1" width="390.4" height="24.65" shape-rendering="crispEdges"/><rect fill="#121212" x="976" y="343.1" width="366" height="24.65" shape-rendering="crispEdges"/><rect fill="#272727" x="0" y="367.5" width="585.6" height="24.65" shape-rendering="crispEdges"/><rect fill="#121212" x="585.6" y="367.5" width="231.8" height="24.65" shape-rendering="crispEdges"/><rect fill="#121212" x="817.4" y="367.5" width="12.2" height="24.65" shape-rendering="crispEdges"/><rect fill="#121212" x="829.6" y="367.5" width="146.4" height="24.65" shape-rendering="crispEdges"/><rect fill="#121212" x="976" y="367.5" width="366" height="24.65" shape-rendering="crispEdges"/><rect fill="#272727" x="0" y="391.9" width="585.6" height="24.65" shape-rendering="crispEdges"/><rect fill="#121212" x="585.6" y="391.9" width="244" height="24.65" shape-rendering="crispEdges"/><rect fill="#121212" x="829.6" y="391.9" width="12.2" height="24.65" shape-rendering="crispEdges"/><rect fill="#121212" x="841.8" y="391.9" width="134.2" height="24.65" shape-rendering="crispEdges"/><rect fill="#121212" x="976" y="391.9" width="366" height="24.65" shape-rendering="crispEdges"/><rect fill="#272727" x="0" y="416.3" width="585.6" height="24.65" shape-rendering="crispEdges"/><rect fill="#121212" x="585.6" y="416.3" width="390.4" height="24.65" shape-rendering="crispEdges"/><rect fill="#121212" x="976" y="416.3" width="366" height="24.65" shape-rendering="crispEdges"/><rect fill="#272727" x="0" y="440.7" width="585.6" height="24.65" shape-rendering="crispEdges"/><rect fill="#121212" x="585.6" y="440.7" width="390.4" height="24.65" shape-rendering="crispEdges"/><rect fill="#121212" x="976" y="440.7" width="366" height="24.65" shape-rendering="crispEdges"/><rect fill="#272727" x="0" y="465.1" width="585.6" height="24.65" shape-rendering="crispEdges"/><rect fill="#121212" x="585.6" y="465.1" width="390.4" height="24.65" shape-rendering="crispEdges"/><rect fill="#121212" x="976" y="465.1" width="366" height="24.65" shape-rendering="crispEdges"/><rect fill="#272727" x="0" y="489.5" width="585.6" height="24.65" shape-rendering="crispEdges"/><rect fill="#121212" x="585.6" y="489.5" width="390.4" height="24.65" shape-rendering="crispEdges"/><rect fill="#121212" x="976" y="489.5" width="366" height="24.65" shape-rendering="crispEdges"/><rect fill="#272727" x="0" y="513.9" width="585.6" height="24.65" shape-rendering="crispEdges"/><rect fill="#121212" x="585.6" y="513.9" width="268.4" height="24.65" shape-rendering="crispEdges"/><rect fill="#121212" x="854" y="513.9" width="12.2" height="24.65" shape-rendering="crispEdges"/><rect fill="#121212" x="866.2" y="513.9" width="109.8" height="24.65" shape-rendering="crispEdges"/><rect fill="#121212" x="976" y="513.9" width="366" height="24.65" shape-rendering="crispEdges"/><rect fill="#272727" x="0" y="538.3" width="585.6" height="24.65" shape-rendering="crispEdges"/><rect fill="#121212" x="585.6" y="538.3" width="756.4" height="24.65" shape-rendering="crispEdges"/><rect fill="#272727" x="0" y="562.7" width="585.6" height="24.65" shape-rendering="crispEdges"/><rect fill="#121212" x="585.6" y="562.7" width="756.4" height="24.65" shape-rendering="crispEdges"/><rect fill="#272727" x="0" y="587.1" width="585.6" height="24.65" shape-rendering="crispEdges"/><rect fill="#121212" x="585.6" y="587.1" width="756.4" height="24.65" shape-rendering="crispEdges"/><rect fill="#272727" x="0" y="611.5" width="585.6" height="24.65" shape-rendering="crispEdges"/><rect fill="#121212" x="585.6" y="611.5" width="756.4" height="24.65" shape-rendering="crispEdges"/><rect fill="#272727" x="0" y="635.9" width="585.6" height="24.65" shape-rendering="crispEdges"/><rect fill="#121212" x="585.6" y="635.9" width="756.4" height="24.65" shape-rendering="crispEdges"/><rect fill="#272727" x="0" y="660.3" width="585.6" height="24.65" shape-rendering="crispEdges"/><rect fill="#121212" x="585.6" y="660.3" width="756.4" height="24.65" shape-rendering="crispEdges"/><rect fill="#272727" x="0" y="684.7" width="585.6" height="24.65" shape-rendering="crispEdges"/><rect fill="#121212" x="585.6" y="684.7" width="756.4" height="24.65" shape-rendering="crispEdges"/><rect fill="#272727" x="0" y="709.1" width="585.6" height="24.65" shape-rendering="crispEdges"/><rect fill="#121212" x="585.6" y="709.1" width="756.4" height="24.65" shape-rendering="crispEdges"/><rect fill="#272727" x="0" y="733.5" width="585.6" height="24.65" shape-rendering="crispEdges"/><rect fill="#121212" x="585.6" y="733.5" width="756.4" height="24.65" shape-rendering="crispEdges"/><rect fill="#242f38" x="0" y="757.9" width="36.6" height="24.65" shape-rendering="crispEdges"/><rect fill="#242f38" x="36.6" y="757.9" width="61" height="24.65" shape-rendering="crispEdges"/><rect fill="#242f38" x="97.6" y="757.9" width="36.6" height="24.65" shape-rendering="crispEdges"/><rect fill="#242f38" x="134.2" y="757.9" width="109.8" height="24.65" shape-rendering="crispEdges"/><rect fill="#242f38" x="244" y="757.9" width="36.6" height="24.65" shape-rendering="crispEdges"/><rect fill="#242f38" x="280.6" y="757.9" width="122" height="24.65" shape-rendering="crispEdges"/><rect fill="#242f38" x="402.6" y="757.9" width="36.6" height="24.65" shape-rendering="crispEdges"/><rect fill="#242f38" x="439.2" y="757.9" width="97.6" height="24.65" shape-rendering="crispEdges"/><rect fill="#242f38" x="536.8" y="757.9" width="36.6" height="24.65" shape-rendering="crispEdges"/><rect fill="#242f38" x="573.4" y="757.9" width="109.8" height="24.65" shape-rendering="crispEdges"/><rect fill="#242f38" x="683.2" y="757.9" width="36.6" height="24.65" shape-rendering="crispEdges"/><rect fill="#242f38" x="719.8" y="757.9" width="61" height="24.65" shape-rendering="crispEdges"/><rect fill="#242f38" x="780.8" y="757.9" width="36.6" height="24.65" shape-rendering="crispEdges"/><rect fill="#242f38" x="817.4" y="757.9" width="61" height="24.65" shape-rendering="crispEdges"/><rect fill="#242f38" x="878.4" y="757.9" width="36.6" height="24.65" shape-rendering="crispEdges"/><rect fill="#242f38" x="915" y="757.9" width="61" height="24.65" shape-rendering="crispEdges"/><rect fill="#242f38" x="976" y="757.9" width="219.6" height="24.65" shape-rendering="crispEdges"/><rect fill="#242f38" x="1195.6" y="757.9" width="12.2" height="24.65" shape-rendering="crispEdges"/><rect fill="#242f38" x="1207.8" y="757.9" width="24.4" height="24.65" shape-rendering="crispEdges"/><rect fill="#242f38" x="1232.2" y="757.9" width="97.6" height="24.65" shape-rendering="crispEdges"/><rect fill="#242f38" x="1329.8" y="757.9" width="12.2" height="24.65" shape-rendering="crispEdges"/>
    <g class="terminal-644436359-matrix">
    <text class="terminal-644436359-r2" x="12.2" y="20" textLength="12.2" clip-path="url(#terminal-644436359-line-0)">⭘</text><text class="terminal-644436359-r2" x="390.4" y="20" textLength="85.4" clip-path="url(#terminal-644436359-line-0)">Pitwall</text><text class="terminal-644436359-r3" x="475.8" y="20" textLength="36.6" clip-path="url(#terminal-644436359-line-0)">&#160;—&#160;</text><text class="terminal-644436359-r3" x="512.4" y="20" textLength="414.8" clip-path="url(#terminal-644436359-line-0)">season&#160;2026&#160;·&#160;data&#160;as&#160;of&#160;15:06&#160;UTC</text><text class="terminal-644436359-r1" x="1342" y="20" textLength="12.2" clip-path="url(#terminal-644436359-line-0)">
</text><text class="terminal-644436359-r2" x="0" y="44.4" textLength="622.2" clip-path="url(#terminal-644436359-line-1)">Replay&#160;finished&#160;·&#160;20:35:00&#160;UTC&#160;·&#160;view:&#160;points&#160;fight</text><text class="terminal-644436359-r1" x="1342" y="44.4" textLength="12.2" clip-path="url(#terminal-644436359-line-1)">
</text><text class="terminal-644436359-r4" x="0" y="68.8" textLength="61" clip-path="url(#terminal-644436359-line-2)">&#160;Pos&#160;</text><text class="terminal-644436359-r4" x="61" y="68.8" textLength="61" clip-path="url(#terminal-644436359-line-2)">&#160;Drv&#160;</text><text class="terminal-644436359-r4" x="122" y="68.8" textLength="109.8" clip-path="url(#terminal-644436359-line-2)">&#160;Int&#160;&#160;&#160;&#160;&#160;</text><text class="terminal-644436359-r4" x="231.8" y="68.8" textLength="109.8" clip-path="url(#terminal-644436359-line-2)">&#160;Gap&#160;&#160;&#160;&#160;&#160;</text><text class="terminal-644436359-r4" x="341.6" y="68.8" textLength="122" clip-path="url(#terminal-644436359-line-2)">&#160;Last&#160;&#160;&#160;&#160;&#160;</text><text class="terminal-644436359-r4" x="463.6" y="68.8" textLength="73.2" clip-path="url(#terminal-644436359-line-2)">&#160;Tyre&#160;</text><text class="terminal-644436359-r2" x="585.6" y="68.8" textLength="158.6" clip-path="url(#terminal-644436359-line-2)">⠀⠀⠀⠀⠀⠀⠀⠀⠀⠀⠀⠀⢸</text><text class="terminal-644436359-r5" x="744.2" y="68.8" textLength="12.2" clip-path="url(#terminal-644436359-line-2)">●</text><text class="terminal-644436359-r2" x="756.4" y="68.8" textLength="219.6" clip-path="url(#terminal-644436359-line-2)">⠀⠀⠀⠀⠀⠀⠀⠀⠀⠀⠀⠀⠀⠀⠀⠀⠀⠀</text><text class="terminal-644436359-r1" x="1342" y="68.8" textLength="12.2" clip-path="url(#terminal-644436359-line-2)">
</text><text class="terminal-644436359-r6" x="0" y="93.2" textLength="61" clip-path="url(#terminal-644436359-line-3)">&#160;8&#160;&#160;&#160;</text><text class="terminal-644436359-r7" x="73.2" y="93.2" textLength="36.6" clip-path="url(#terminal-644436359-line-3)">LAW</text><text class="terminal-644436359-r2" x="122" y="93.2" textLength="109.8" clip-path="url(#terminal-644436359-line-3)">&#160;+4.920&#160;&#160;</text><text class="terminal-644436359-r2" x="231.8" y="93.2" textLength="109.8" clip-path="url(#terminal-644436359-line-3)">&#160;+37.318&#160;</text><text class="terminal-644436359-r2" x="341.6" y="93.2" textLength="122" clip-path="url(#terminal-644436359-line-3)">&#160;1:17.801&#160;</text><text class="terminal-644436359-r2" x="463.6" y="93.2" textLength="73.2" clip-path="url(#terminal-644436359-line-3)">&#160;M&#160;&#160;&#160;&#160;</text><text class="terminal-644436359-r2" x="585.6" y="93.2" textLength="390.4" clip-path="url(#terminal-644436359-line-3)">⠀⠀⠀⠀⠀⠀⠀⠀⠀⠀⠀⠀⠈⡿⡄⠀⠀⠀⠀⠀⠀⠀⠀⠀⠀⠀⠀⠀⠀⠀⠀⠀</text><text class="terminal-644436359-r1" x="1342" y="93.2" textLength="12.2" clip-path="url(#terminal-644436359-line-3)">
</text><text class="terminal-644436359-r2" x="0" y="117.6" textLength="61" clip-path="url(#terminal-644436359-line-4)">&#160;9&#160;&#160;&#160;</text><text class="terminal-644436359-r8" x="73.2" y="117.6" textLength="36.6" clip-path="url(#terminal-644436359-line-4)">GAS</text><text class="terminal-644436359-r2" x="122" y="117.6" textLength="109.8" clip-path="url(#terminal-644436359-line-4)">&#160;+8.545&#160;&#160;</text><text class="terminal-644436359-r2" x="231.8" y="117.6" textLength="109.8" clip-path="url(#terminal-644436359-line-4)">&#160;+45.310&#160;</text><text class="terminal-644436359-r2" x="341.6" y="117.6" textLength="122" clip-path="url(#terminal-644436359-line-4)">&#160;1:17.569&#160;</text><text class="terminal-644436359-r2" x="463.6" y="117.6" textLength="73.2" clip-path="url(#terminal-644436359-line-4)">&#160;M&#160;&#160;&#160;&#160;</text><text class="terminal-644436359-r2" x="585.6" y="117.6" textLength="390.4" clip-path="url(#terminal-644436359-line-4)">⠀⠀⠀⠀⠀⠀⠀⠀⠀⠀⠀⠀⠀⡇⠹⡀⠀⠀⠀⠀⠀⠀⠀⠀⠀⠀⠀⠀⠀⠀⠀⠀</text><text class="terminal-644436359-r1" x="1342" y="117.6" textLength="12.2" clip-path="url(#terminal-644436359-line-4)">
</text><text class="terminal-644436359-r2" x="0" y="142" textLength="61" clip-path="url(#terminal-644436359-line-5)">&#160;10&#160;&#160;</text><text class="terminal-644436359-r9" x="73.2" y="142" textLength="36.6" clip-path="url(#terminal-644436359-line-5)">BEA</text><text class="terminal-644436359-r2" x="122" y="142" textLength="109.8" clip-path="url(#terminal-644436359-line-5)">&#160;+1.860&#160;&#160;</text><text class="terminal-644436359-r2" x="231.8" y="142" textLength="109.8" clip-path="url(#terminal-644436359-line-5)">&#160;+47.152&#160;</text><text class="terminal-644436359-r2" x="341.6" y="142" textLength="122" clip-path="url(#terminal-644436359-line-5)">&#160;1:18.120&#160;</text><text class="terminal-644436359-r2" x="463.6" y="142" textLength="73.2" clip-path="url(#terminal-644436359-line-5)">&#160;S&#160;&#160;&#160;&#160;</text><text class="terminal-644436359-r2" x="585.6" y="142" textLength="390.4" clip-path="url(#terminal-644436359-line-5)">⠀⠀⠀⠀⠀⠀⠀⠀⠀⠀⠀⠀⠀⡇⠀⢳⡀⠀⠀⠀⠀⠀⠀⠀⠀⠀⠀⠀⠀⠀⠀⠀</text><text class="terminal-644436359-r1" x="1342" y="142" textLength="12.2" clip-path="url(#terminal-644436359-line-5)">
</text><text class="terminal-644436359-r2" x="0" y="166.4" textLength="61" clip-path="url(#terminal-644436359-line-6)">&#160;11&#160;&#160;</text><text class="terminal-644436359-r10" x="73.2" y="166.4" textLength="36.6" clip-path="url(#terminal-644436359-line-6)">SAI</text><text class="terminal-644436359-r2" x="122" y="166.4" textLength="109.8" clip-path="url(#terminal-644436359-line-6)">&#160;+12.608&#160;</text><text class="terminal-644436359-r2" x="231.8" y="166.4" textLength="109.8" clip-path="url(#terminal-644436359-line-6)">&#160;+59.528&#160;</text><text class="terminal-644436359-r2" x="341.6" y="166.4" textLength="122" clip-path="url(#terminal-644436359-line-6)">&#160;1:17.544&#160;</text><text class="terminal-644436359-r2" x="463.6" y="166.4" textLength="73.2" clip-path="url(#terminal-644436359-line-6)">&#160;M&#160;&#160;&#160;&#160;</text><text class="terminal-644436359-r2" x="585.6" y="166.4" textLength="195.2" clip-path="url(#terminal-644436359-line-6)">⠀⠀⠀⠀⠀⠀⠀⠀⠀⠀⠀⠀⢰⠃⠀⠀</text><text class="terminal-644436359-r10" x="780.8" y="166.4" textLength="12.2" clip-path="url(#terminal-644436359-line-6)">●</text><text class="terminal-644436359-r2" x="793" y="166.4" textLength="183" clip-path="url(#terminal-644436359-line-6)">⠀⠀⠀⠀⠀⠀⠀⠀⠀⠀⠀⠀⠀⠀⠀</text><text class="terminal-644436359-r1" x="1342" y="166.4" textLength="12.2" clip-path="url(#terminal-644436359-line-6)">
</text><text class="terminal-644436359-r2" x="0" y="190.8" textLength="61" clip-path="url(#terminal-644436359-line-7)">&#160;12&#160;&#160;</text><text class="terminal-644436359-r5" x="73.2" y="190.8" textLength="36.6" clip-path="url(#terminal-644436359-line-7)">ALO</text><text class="terminal-644436359-r2" x="122" y="190.8" textLength="109.8" clip-path="url(#terminal-644436359-line-7)">&#160;+2.315&#160;&#160;</text><text class="terminal-644436359-r2" x="231.8" y="190.8" textLength="109.8" clip-path="url(#terminal-644436359-line-7)">&#160;+61.828&#160;</text><text class="terminal-644436359-r2" x="341.6" y="190.8" textLength="122" clip-path="url(#terminal-644436359-line-7)">&#160;1:20.409&#160;</text><text class="terminal-644436359-r2" x="463.6" y="190.8" textLength="73.2" clip-path="url(#terminal-644436359-line-7)">&#160;S&#160;&#160;&#160;&#160;</text><text class="terminal-644436359-r2" x="585.6" y="190.8" textLength="390.4" clip-path="url(#terminal-644436359-line-7)">⠀⠀⠀⠀⠀⠀⠀⠀⠀⠀⠀⠀⡼⠀⠀⠀⠘⡆⠀⠀⠀⠀⠀⠀⠀⠀⠀⠀⠀⠀⠀⠀</text><text class="terminal-644436359-r1" x="1342" y="190.8" textLength="12.2" clip-path="url(#terminal-644436359-line-7)">
</text><text class="terminal-644436359-r2" x="585.6" y="215.2" textLength="390.4" clip-path="url(#terminal-644436359-line-8)">⠀⠀⠀⠀⠀⠀⠀⠀⠀⠀⡠⠞⠁⠀⠀⠀⠀⢳⠀⠀⠀⠀⠀⠀⠀⠀⠀⠀⠀⠀⠀⠀</text><text class="terminal-644436359-r1" x="1342" y="215.2" textLength="12.2" clip-path="url(#terminal-644436359-line-8)">
</text><text class="terminal-644436359-r2" x="585.6" y="239.6" textLength="390.4" clip-path="url(#terminal-644436359-line-9)">⠀⠀⠀⠀⠀⠀⠀⠀⠀⢠⠇⠀⠀⠀⠀⠀⠀⠸⡄⠀⠀⠀⠀⠀⠀⠀⠀⠀⠀⠀⠀⠀</text><text class="terminal-644436359-r1" x="1342" y="239.6" textLength="12.2" clip-path="url(#terminal-644436359-line-9)">
</text><text class="terminal-644436359-r2" x="585.6" y="264" textLength="390.4" clip-path="url(#terminal-644436359-line-10)">⠀⠀⠀⠀⠀⠀⠀⠀⠀⢸⠀⠀⠀⠀⠀⠀⠀⠀⢧⠀⠀⠀⠀⠀⠀⠀⠀⠀⠀⠀⠀⠀</text><text class="terminal-644436359-r1" x="1342" y="264" textLength="12.2" clip-path="url(#terminal-644436359-line-10)">
</text><text class="terminal-644436359-r2" x="585.6" y="288.4" textLength="390.4" clip-path="url(#terminal-644436359-line-11)">⠀⠀⠀⠀⠀⠀⠀⠀⠀⡏⠀⠀⠀⠀⠀⠀⠀⠀⠸⡄⠀⠀⠀⠀⠀⠀⠀⠀⠀⠀⠀⠀</text><text class="terminal-644436359-r1" x="1342" y="288.4" textLength="12.2" clip-path="url(#terminal-644436359-line-11)">
</text><text class="terminal-644436359-r2" x="585.6" y="312.8" textLength="390.4" clip-path="url(#terminal-644436359-line-12)">⠀⠀⠀⠀⠀⠀⠀⠀⠀⡇⠀⠀⠀⠀⠀⠀⠀⠀⠀⢧⠀⠀⠀⠀⠀⠀⠀⠀⠀⠀⠀⠀</text><text class="terminal-644436359-r1" x="1342" y="312.8" textLength="12.2" clip-path="url(#terminal-644436359-line-12)">
</text><text class="terminal-644436359-r2" x="585.6" y="337.2" textLength="390.4" clip-path="url(#terminal-644436359-line-13)">⠀⠀⠀⠀⠀⠀⠀⠀⠀⢹⠀⠀⠀⠀⠀⠀⠀⠀⠀⢸⠀⠀⠀⠀⠀⠀⠀⠀⠀⠀⠀⠀</text><text class="terminal-644436359-r1" x="1342" y="337.2" textLength="12.2" clip-path="url(#terminal-644436359-line-13)">
</text><text class="terminal-644436359-r2" x="585.6" y="361.6" textLength="390.4" clip-path="url(#terminal-644436359-line-14)">⠀⠀⠀⠀⠀⠀⠀⠀⠀⢸⡀⠀⠀⠀⠀⠀⠀⠀⠀⢯⡅⠀⠀⠀⠀⠀⠀⠀⠀⠀⠀⠀</text><text class="terminal-644436359-r1" x="1342" y="361.6" textLength="12.2" clip-path="url(#terminal-644436359-line-14)">
</text><text class="terminal-644436359-r2" x="585.6" y="386" textLength="231.8" clip-path="url(#terminal-644436359-line-15)">⠀⠀⠀⠀⠀⠀⠀⠀⠀⠀⠑⠒⢦⠀⠀⠀⠀⠀⠀</text><text class="terminal-644436359-r9" x="817.4" y="386" textLength="12.2" clip-path="url(#terminal-644436359-line-15)">●</text><text class="terminal-644436359-r2" x="829.6" y="386" textLength="146.4" clip-path="url(#terminal-644436359-line-15)">⡇⠀⠀⠀⠀⠀⠀⠀⠀⠀⠀⠀</text><text class="terminal-644436359-r1" x="1342" y="386" textLength="12.2" clip-path="url(#terminal-644436359-line-15)">
</text><text class="terminal-644436359-r2" x="585.6" y="410.4" textLength="244" clip-path="url(#terminal-644436359-line-16)">⠀⠀⠀⠀⠀⠀⠀⠀⠀⠀⠀⠀⢸⠀⠀⠀⠀⠀⠀⠀</text><text class="terminal-644436359-r8" x="829.6" y="410.4" textLength="12.2" clip-path="url(#terminal-644436359-line-16)">●</text><text class="terminal-644436359-r2" x="841.8" y="410.4" textLength="134.2" clip-path="url(#terminal-644436359-line-16)">⠀⠀⠀⠀⠀⠀⠀⠀⠀⠀⠀</text><text class="terminal-644436359-r1" x="1342" y="410.4" textLength="12.2" clip-path="url(#terminal-644436359-line-16)">
</text><text class="terminal-644436359-r2" x="585.6" y="434.8" textLength="390.4" clip-path="url(#terminal-644436359-line-17)">⠀⠀⠀⠀⠀⠀⠀⠀⠀⠀⠀⠀⢸⡀⠀⠀⠀⠀⠀⠀⠸⡆⠀⠀⠀⠀⠀⠀⠀⠀⠀⠀</text><text class="terminal-644436359-r1" x="1342" y="434.8" textLength="12.2" clip-path="url(#terminal-644436359-line-17)">
</text><text class="terminal-644436359-r2" x="585.6" y="459.2" textLength="390.4" clip-path="url(#terminal-644436359-line-18)">⠀⠀⠀⠀⠀⠀⠀⠀⠀⠀⠀⠀⠀⠙⢦⡀⠀⠀⠀⠀⠀⢷⠀⠀⠀⠀⠀⠀⠀⠀⠀⠀</text><text class="terminal-644436359-r1" x="1342" y="459.2" textLength="12.2" clip-path="url(#terminal-644436359-line-18)">
</text><text class="terminal-644436359-r2" x="585.6" y="483.6" textLength="390.4" clip-path="url(#terminal-644436359-line-19)">⠀⠀⠀⠀⠀⠀⠀⠀⠀⠀⠀⠀⠀⠀⠀⠙⡆⠀⠀⠀⠀⡼⠀⠀⠀⠀⠀⠀⠀⠀⠀⠀</text><text class="terminal-644436359-r1" x="1342" y="483.6" textLength="12.2" clip-path="url(#terminal-644436359-line-19)">
</text><text class="terminal-644436359-r2" x="585.6" y="508" textLength="390.4" clip-path="url(#terminal-644436359-line-20)">⠀⠀⠀⠀⠀⠀⠀⠀⠀⠀⠀⠀⠀⠀⠀⠀⠳⣄⠀⠀⠀⡇⡅⠀⠀⠀⠀⠀⠀⠀⠀⠀</text><text class="terminal-644436359-r1" x="1342" y="508" textLength="12.2" clip-path="url(#terminal-644436359-line-20)">
</text><text class="terminal-644436359-r2" x="585.6" y="532.4" textLength="268.4" clip-path="url(#terminal-644436359-line-21)">⠀⠀⠀⠀⠀⠀⠀⠀⠀⠀⠀⠀⠀⠀⠀⠀⠀⠈⠑⠦⣄⣉</text><text class="terminal-644436359-r7" x="854" y="532.4" textLength="12.2" clip-path="url(#terminal-644436359-line-21)">●</text><text class="terminal-644436359-r2" x="866.2" y="532.4" textLength="109.8" clip-path="url(#terminal-644436359-line-21)">⠀⠀⠀⠀⠀⠀⠀⠀⠀</text><text class="terminal-644436359-r1" x="1342" y="532.4" textLength="12.2" clip-path="url(#terminal-644436359-line-21)">
</text><text class="terminal-644436359-r1" x="1342" y="556.8" textLength="12.2" clip-path="url(#terminal-644436359-line-22)">
</text><text class="terminal-644436359-r1" x="1342" y="581.2" textLength="12.2" clip-path="url(#terminal-644436359-line-23)">
</text><text class="terminal-644436359-r1" x="1342" y="605.6" textLength="12.2" clip-path="url(#terminal-644436359-line-24)">
</text><text class="terminal-644436359-r1" x="1342" y="630" textLength="12.2" clip-path="url(#terminal-644436359-line-25)">
</text><text class="terminal-644436359-r1" x="1342" y="654.4" textLength="12.2" clip-path="url(#terminal-644436359-line-26)">
</text><text class="terminal-644436359-r1" x="1342" y="678.8" textLength="12.2" clip-path="url(#terminal-644436359-line-27)">
</text><text class="terminal-644436359-r1" x="1342" y="703.2" textLength="12.2" clip-path="url(#terminal-644436359-line-28)">
</text><text class="terminal-644436359-r1" x="1342" y="727.6" textLength="12.2" clip-path="url(#terminal-644436359-line-29)">
</text><text class="terminal-644436359-r1" x="1342" y="752" textLength="12.2" clip-path="url(#terminal-644436359-line-30)">
</text><text class="terminal-644436359-r11" x="0" y="776.4" textLength="36.6" clip-path="url(#terminal-644436359-line-31)">&#160;v&#160;</text><text class="terminal-644436359-r2" x="36.6" y="776.4" textLength="61" clip-path="url(#terminal-644436359-line-31)">View&#160;</text><text class="terminal-644436359-r11" x="97.6" y="776.4" textLength="36.6" clip-path="url(#terminal-644436359-line-31)">&#160;s&#160;</text><text class="terminal-644436359-r2" x="134.2" y="776.4" textLength="109.8" clip-path="url(#terminal-644436359-line-31)">Schedule&#160;</text><text class="terminal-644436359-r11" x="244" y="776.4" textLength="36.6" clip-path="url(#terminal-644436359-line-31)">&#160;n&#160;</text><text class="terminal-644436359-r2" x="280.6" y="776.4" textLength="122" clip-path="url(#terminal-644436359-line-31)">Standings&#160;</text><text class="terminal-644436359-r11" x="402.6" y="776.4" textLength="36.6" clip-path="url(#terminal-644436359-line-31)">&#160;r&#160;</text><text class="terminal-644436359-r2" x="439.2" y="776.4" textLength="97.6" clip-path="url(#terminal-644436359-line-31)">Results&#160;</text><text class="terminal-644436359-r11" x="536.8" y="776.4" textLength="36.6" clip-path="url(#terminal-644436359-line-31)">&#160;p&#160;</text><text class="terminal-644436359-r2" x="573.4" y="776.4" textLength="109.8" clip-path="url(#terminal-644436359-line-31)">Profiles&#160;</text><text class="terminal-644436359-r11" x="683.2" y="776.4" textLength="36.6" clip-path="url(#terminal-644436359-line-31)">&#160;l&#160;</text><text class="terminal-644436359-r2" x="719.8" y="776.4" textLength="61" clip-path="url(#terminal-644436359-line-31)">Live&#160;</text><text class="terminal-644436359-r11" x="780.8" y="776.4" textLength="36.6" clip-path="url(#terminal-644436359-line-31)">&#160;g&#160;</text><text class="terminal-644436359-r2" x="817.4" y="776.4" textLength="61" clip-path="url(#terminal-644436359-line-31)">Game&#160;</text><text class="terminal-644436359-r11" x="878.4" y="776.4" textLength="36.6" clip-path="url(#terminal-644436359-line-31)">&#160;q&#160;</text><text class="terminal-644436359-r2" x="915" y="776.4" textLength="61" clip-path="url(#terminal-644436359-line-31)">Quit&#160;</text><text class="terminal-644436359-r12" x="1195.6" y="776.4" textLength="12.2" clip-path="url(#terminal-644436359-line-31)">▏</text><text class="terminal-644436359-r11" x="1207.8" y="776.4" textLength="24.4" clip-path="url(#terminal-644436359-line-31)">^p</text><text class="terminal-644436359-r2" x="1232.2" y="776.4" textLength="97.6" clip-path="url(#terminal-644436359-line-31)">&#160;palette</text>
    </g>
    </g>
</svg>
